<svg width="846" height="408" viewBox="0 0 846 408" fill="none" xmlns="http://www.w3.org/2000/svg">
<rect width="846" height="408" rx="6" fill="white"/>
<rect x="0.5" y="0.5" width="845" height="407" rx="5.5" stroke="#29375F" stroke-opacity="0.2"/>
<rect x="713" y="32" width="32" height="15" rx="7.5" fill="white"/>
<rect x="712.5" y="31.5" width="33" height="16" rx="8" stroke="#29375F" stroke-opacity="0.4"/>
<rect x="731.018" y="33.8633" width="12.1034" height="11.2727" rx="5.63636" fill="#8DC63F" stroke="#639F11"/>
<path d="M624.959 43H626.276V40.2855L627.307 39.1009L630.128 43H631.713L628.18 38.2017L631.7 34.2727H630.043L626.382 38.4403H626.276V34.2727H624.959V43ZM632.928 43H634.244V39.6974H636.034C636.064 39.6974 636.089 39.6974 636.119 39.6974L637.892 43H639.392L637.457 39.4673C638.527 39.071 639.06 38.1804 639.06 37.0085C639.06 35.402 638.062 34.2727 636.038 34.2727H632.928V43ZM634.244 38.5639V35.402H635.898C637.197 35.402 637.734 36.0199 637.734 37.0085C637.734 37.9929 637.197 38.5639 635.915 38.5639H634.244ZM640.359 41.2955H644.497V43H645.754V41.2955H646.909V40.179H645.754V34.2727H644.131L640.359 40.2301V41.2955ZM644.506 40.179H641.74V40.1108L644.438 35.8409H644.506V40.179ZM649.251 43L650.052 40.6903H653.461L654.258 43H655.656L652.515 34.2727H650.994L647.853 43H649.251ZM650.435 39.5824L651.722 35.858H651.79L653.077 39.5824H650.435ZM656.916 43H662.187V41.8665H658.233V34.2727H656.916V43ZM663.689 43H668.961V41.8665H665.006V34.2727H663.689V43ZM674.401 34.2727H672.978L676.119 43H677.64L680.781 34.2727H679.357L676.928 41.3807H676.83L674.401 34.2727ZM681.939 43H683.213V36.4545H681.939V43ZM682.582 35.4446C683.021 35.4446 683.387 35.1037 683.387 34.6861C683.387 34.2685 683.021 33.9233 682.582 33.9233C682.139 33.9233 681.777 34.2685 681.777 34.6861C681.777 35.1037 682.139 35.4446 682.582 35.4446ZM689.832 38.0526C689.567 37.0341 688.771 36.3693 687.356 36.3693C685.877 36.3693 684.829 37.1491 684.829 38.3082C684.829 39.2372 685.391 39.8551 686.619 40.1278L687.727 40.3707C688.357 40.5114 688.651 40.7926 688.651 41.2017C688.651 41.7088 688.11 42.1051 687.275 42.1051C686.512 42.1051 686.022 41.777 685.869 41.1335L684.637 41.321C684.85 42.4801 685.813 43.1321 687.283 43.1321C688.864 43.1321 689.96 42.2926 689.96 41.108C689.96 40.1832 689.371 39.6122 688.17 39.3352L687.13 39.0966C686.41 38.9261 686.099 38.6832 686.103 38.2401C686.099 37.7372 686.644 37.3793 687.369 37.3793C688.161 37.3793 688.528 37.8182 688.677 38.2571L689.832 38.0526ZM691.36 43H692.635V36.4545H691.36V43ZM692.004 35.4446C692.443 35.4446 692.809 35.1037 692.809 34.6861C692.809 34.2685 692.443 33.9233 692.004 33.9233C691.561 33.9233 691.199 34.2685 691.199 34.6861C691.199 35.1037 691.561 35.4446 692.004 35.4446ZM697.404 36.4545H696.062V34.8864H694.788V36.4545H693.829V37.4773H694.788V41.3423C694.783 42.5312 695.691 43.1065 696.697 43.0852C697.102 43.081 697.374 43.0043 697.523 42.9489L697.293 41.8963C697.208 41.9134 697.05 41.9517 696.846 41.9517C696.433 41.9517 696.062 41.8153 696.062 41.0781V37.4773H697.404V36.4545ZM703.613 38.0526C703.349 37.0341 702.552 36.3693 701.137 36.3693C699.658 36.3693 698.61 37.1491 698.61 38.3082C698.61 39.2372 699.173 39.8551 700.4 40.1278L701.508 40.3707C702.138 40.5114 702.433 40.7926 702.433 41.2017C702.433 41.7088 701.891 42.1051 701.056 42.1051C700.293 42.1051 699.803 41.777 699.65 41.1335L698.418 41.321C698.631 42.4801 699.594 43.1321 701.065 43.1321C702.646 43.1321 703.741 42.2926 703.741 41.108C703.741 40.1832 703.153 39.6122 701.951 39.3352L700.911 39.0966C700.191 38.9261 699.88 38.6832 699.884 38.2401C699.88 37.7372 700.425 37.3793 701.15 37.3793C701.942 37.3793 702.309 37.8182 702.458 38.2571L703.613 38.0526Z" fill="#29375F" fill-opacity="0.5"/>
<path d="M754.696 43L755.497 40.6903H758.906L759.703 43H761.101L757.96 34.2727H756.439L753.298 43H754.696ZM755.881 39.5824L757.168 35.858H757.236L758.523 39.5824H755.881ZM763.533 34.2727H762.259V43H763.533V34.2727ZM766.521 34.2727H765.247V43H766.521V34.2727Z" fill="#29375F" fill-opacity="0.8"/>
<path d="M146.409 325.159C149 325.17 150.767 323.472 150.761 321.102C150.767 318.92 149.244 317.347 147.182 317.347C145.903 317.347 144.773 317.96 144.25 318.989H144.17C144.182 316.722 144.977 315.312 146.494 315.312C147.386 315.312 148.028 315.801 148.216 316.614H150.642C150.409 314.699 148.818 313.205 146.494 313.205C143.619 313.205 141.773 315.534 141.761 319.443C141.756 323.705 144.017 325.148 146.409 325.159ZM146.398 323.227C145.261 323.227 144.42 322.312 144.42 321.176C144.426 320.045 145.284 319.125 146.415 319.125C147.551 319.125 148.381 320.017 148.375 321.17C148.381 322.335 147.534 323.227 146.398 323.227ZM157.568 313.364H155.256L152.375 315.188V317.369L155.04 315.699H155.108V325H157.568V313.364Z" fill="#DC796F"/>
<path d="M394.006 313.364H391.693L388.812 315.188V317.369L391.477 315.699H391.545V325H394.006V313.364ZM401.021 325.159C403.612 325.159 405.374 323.472 405.368 321.119C405.374 318.892 403.817 317.29 401.72 317.29C400.697 317.29 399.817 317.716 399.408 318.29H399.339L399.641 315.375H404.726V313.364H397.612L397.061 319.5L399.249 319.892C399.607 319.409 400.3 319.108 400.987 319.108C402.158 319.114 402.999 319.96 402.999 321.182C402.999 322.392 402.175 323.227 401.021 323.227C400.044 323.227 399.254 322.614 399.197 321.71H396.811C396.857 323.722 398.612 325.159 401.021 325.159Z" fill="#496AD2"/>
<path d="M643.006 313.364H640.693L637.812 315.188V317.369L640.477 315.699H640.545V325H643.006V313.364ZM645.771 325H654.067V322.989H649.18V322.909L650.879 321.244C653.271 319.062 653.913 317.972 653.913 316.648C653.913 314.631 652.266 313.205 649.771 313.205C647.328 313.205 645.652 314.665 645.658 316.949H647.993C647.987 315.835 648.692 315.153 649.754 315.153C650.777 315.153 651.538 315.79 651.538 316.812C651.538 317.739 650.97 318.375 649.913 319.392L645.771 323.227V325Z" fill="#FDBC60"/>
<path d="M102.875 362.273H101.818L99.3977 363.722L99.2102 364.795L101.58 363.381H101.631L100.369 371H101.426L102.875 362.273ZM104.038 369.21H108.134L107.839 371H108.845L109.143 369.21H110.345L110.499 368.273H109.297L110.294 362.273H109.016L104.175 368.341L104.038 369.21ZM108.295 368.273H105.334V368.205L108.999 363.619H109.067L108.295 368.273ZM115.027 371H116.033L116.715 366.909C116.868 365.955 117.686 365.273 118.471 365.273C119.238 365.273 119.681 365.767 119.561 366.517L118.811 371H119.834L120.55 366.739C120.686 365.886 121.317 365.273 122.238 365.273C122.953 365.273 123.499 365.648 123.346 366.619L122.613 371H123.618L124.351 366.619C124.607 365.085 123.891 364.369 122.732 364.369C121.794 364.369 121.027 364.795 120.584 365.477H120.516C120.311 364.778 119.8 364.369 118.948 364.369C118.096 364.369 117.397 364.778 117.005 365.477H116.919L117.09 364.455H116.118L115.027 371ZM125.457 371H126.463L127.554 364.455H126.548L125.457 371ZM127.358 363.347C127.75 363.347 128.074 363.04 128.074 362.665C128.074 362.29 127.75 361.983 127.358 361.983C126.966 361.983 126.642 362.29 126.642 362.665C126.642 363.04 126.966 363.347 127.358 363.347ZM129.958 367.062C130.163 365.92 130.964 365.273 131.935 365.273C132.873 365.273 133.333 365.886 133.163 366.909L132.481 371H133.487L134.185 366.841C134.458 365.17 133.691 364.369 132.379 364.369C131.39 364.369 130.691 364.812 130.282 365.477H130.197L130.367 364.455H129.396L128.305 371H129.31L129.958 367.062ZM139.194 371L140.485 368.528H144.013L144.478 371H145.586L143.83 362.273H142.739L138.086 371H139.194ZM140.975 367.591L143.029 363.653H143.097L143.838 367.591H140.975ZM152.431 364.455H151.298L148.622 369.67H148.554L147.616 364.455H146.568L147.897 371H148.92L152.431 364.455ZM154.667 373.591C156.226 373.591 157.607 372.875 157.888 371.188L158.996 364.455H158.025L157.854 365.494H157.752C157.59 365.153 157.309 364.369 156.03 364.369C154.377 364.369 153.017 365.682 152.689 367.693C152.348 369.739 153.35 370.898 154.939 370.898C156.213 370.898 156.746 370.148 157.019 369.79H157.104L156.9 371.119C156.712 372.21 155.834 372.705 154.786 372.705C153.584 372.705 153.303 372.078 153.098 371.716L152.195 372.278C152.498 372.964 153.196 373.591 154.667 373.591ZM155.195 369.994C153.925 369.994 153.469 369.04 153.695 367.676C153.917 366.347 154.675 365.273 155.962 365.273C157.181 365.273 157.713 366.261 157.479 367.676C157.24 369.125 156.397 369.994 155.195 369.994ZM167.059 364.455H165.657L165.917 362.886H164.911L164.651 364.455H163.667L163.53 365.307H164.51L163.837 369.398C163.65 370.54 164.468 371.085 165.32 371.085C165.695 371.085 165.951 371.017 166.104 370.966L166.036 370.062C165.951 370.08 165.814 370.114 165.593 370.114C165.15 370.114 164.74 369.977 164.877 369.125L165.512 365.307H166.922L167.059 364.455ZM167.48 371H168.486L169.577 364.455H168.571L167.48 371ZM169.381 363.347C169.773 363.347 170.097 363.04 170.097 362.665C170.097 362.29 169.773 361.983 169.381 361.983C168.989 361.983 168.665 362.29 168.665 362.665C168.665 363.04 168.989 363.347 169.381 363.347ZM170.328 371H171.334L172.016 366.909C172.169 365.955 172.987 365.273 173.771 365.273C174.538 365.273 174.982 365.767 174.862 366.517L174.112 371H175.135L175.851 366.739C175.987 365.886 176.618 365.273 177.538 365.273C178.254 365.273 178.8 365.648 178.646 366.619L177.913 371H178.919L179.652 366.619C179.908 365.085 179.192 364.369 178.033 364.369C177.095 364.369 176.328 364.795 175.885 365.477H175.817C175.612 364.778 175.101 364.369 174.249 364.369C173.396 364.369 172.697 364.778 172.305 365.477H172.22L172.391 364.455H171.419L170.328 371ZM183.485 371.136C184.819 371.136 185.893 370.472 186.366 369.483L185.445 369.21C185.075 369.892 184.444 370.233 183.638 370.233C182.377 370.233 181.704 369.67 181.947 368.068H186.707L186.775 367.642C187.188 365.205 185.876 364.369 184.508 364.369C182.739 364.369 181.325 365.767 180.996 367.778C180.66 369.79 181.597 371.136 183.485 371.136ZM182.087 367.199C182.288 366.27 183.255 365.273 184.354 365.273C185.45 365.273 186.012 366.091 185.82 367.199H182.087Z" fill="#29375F" fill-opacity="0.6"/>
<path d="M349.875 362.273H348.818L346.398 363.722L346.21 364.795L348.58 363.381H348.631L347.369 371H348.426L349.875 362.273ZM353.783 371.119C355.483 371.119 356.838 370.143 357.072 368.75C357.264 367.621 356.646 366.653 355.726 366.466V366.432C356.561 366.227 357.281 365.511 357.447 364.54C357.678 363.176 356.68 362.153 355.129 362.153C353.629 362.153 352.432 363.087 352.18 364.403C351.997 365.358 352.368 366.21 353.169 366.432V366.466C352.197 366.636 351.337 367.54 351.158 368.614C350.919 370.037 351.989 371.119 353.783 371.119ZM353.817 370.182C352.662 370.182 352.053 369.615 352.197 368.699C352.359 367.676 353.322 366.943 354.464 366.943C355.538 366.943 356.22 367.591 356.067 368.562C355.913 369.534 355.048 370.182 353.817 370.182ZM354.499 366.04C353.591 366.04 353.024 365.503 353.169 364.608C353.318 363.688 354.081 363.074 355.112 363.074C356.062 363.074 356.599 363.585 356.442 364.472C356.28 365.396 355.496 366.04 354.499 366.04ZM361.723 371H362.728L363.41 366.909C363.564 365.955 364.382 365.273 365.166 365.273C365.933 365.273 366.376 365.767 366.257 366.517L365.507 371H366.529L367.245 366.739C367.382 365.886 368.012 365.273 368.933 365.273C369.649 365.273 370.194 365.648 370.041 366.619L369.308 371H370.314L371.047 366.619C371.302 365.085 370.586 364.369 369.427 364.369C368.49 364.369 367.723 364.795 367.279 365.477H367.211C367.007 364.778 366.495 364.369 365.643 364.369C364.791 364.369 364.092 364.778 363.7 365.477H363.615L363.785 364.455H362.814L361.723 371ZM372.152 371H373.158L374.249 364.455H373.243L372.152 371ZM374.053 363.347C374.445 363.347 374.769 363.04 374.769 362.665C374.769 362.29 374.445 361.983 374.053 361.983C373.661 361.983 373.337 362.29 373.337 362.665C373.337 363.04 373.661 363.347 374.053 363.347ZM376.653 367.062C376.858 365.92 377.659 365.273 378.631 365.273C379.568 365.273 380.028 365.886 379.858 366.909L379.176 371H380.182L380.881 366.841C381.153 365.17 380.386 364.369 379.074 364.369C378.085 364.369 377.386 364.812 376.977 365.477H376.892L377.062 364.455H376.091L375 371H376.006L376.653 367.062ZM385.889 371L387.18 368.528H390.708L391.173 371H392.281L390.525 362.273H389.434L384.781 371H385.889ZM387.67 367.591L389.724 363.653H389.792L390.534 367.591H387.67ZM399.127 364.455H397.993L395.317 369.67H395.249L394.311 364.455H393.263L394.593 371H395.615L399.127 364.455ZM401.362 373.591C402.922 373.591 404.302 372.875 404.583 371.188L405.691 364.455H404.72L404.549 365.494H404.447C404.285 365.153 404.004 364.369 402.725 364.369C401.072 364.369 399.713 365.682 399.385 367.693C399.044 369.739 400.045 370.898 401.635 370.898C402.909 370.898 403.441 370.148 403.714 369.79H403.799L403.595 371.119C403.407 372.21 402.529 372.705 401.481 372.705C400.279 372.705 399.998 372.078 399.794 371.716L398.89 372.278C399.193 372.964 399.892 373.591 401.362 373.591ZM401.89 369.994C400.62 369.994 400.164 369.04 400.39 367.676C400.612 366.347 401.37 365.273 402.657 365.273C403.876 365.273 404.409 366.261 404.174 367.676C403.936 369.125 403.092 369.994 401.89 369.994ZM413.754 364.455H412.352L412.612 362.886H411.606L411.346 364.455H410.362L410.225 365.307H411.206L410.532 369.398C410.345 370.54 411.163 371.085 412.015 371.085C412.39 371.085 412.646 371.017 412.799 370.966L412.731 370.062C412.646 370.08 412.51 370.114 412.288 370.114C411.845 370.114 411.436 369.977 411.572 369.125L412.207 365.307H413.618L413.754 364.455ZM414.176 371H415.181L416.272 364.455H415.267L414.176 371ZM416.076 363.347C416.468 363.347 416.792 363.04 416.792 362.665C416.792 362.29 416.468 361.983 416.076 361.983C415.684 361.983 415.36 362.29 415.36 362.665C415.36 363.04 415.684 363.347 416.076 363.347ZM417.023 371H418.029L418.711 366.909C418.864 365.955 419.683 365.273 420.467 365.273C421.234 365.273 421.677 365.767 421.558 366.517L420.808 371H421.83L422.546 366.739C422.683 365.886 423.313 365.273 424.234 365.273C424.95 365.273 425.495 365.648 425.342 366.619L424.609 371H425.614L426.347 366.619C426.603 365.085 425.887 364.369 424.728 364.369C423.79 364.369 423.023 364.795 422.58 365.477H422.512C422.308 364.778 421.796 364.369 420.944 364.369C420.092 364.369 419.393 364.778 419.001 365.477H418.915L419.086 364.455H418.114L417.023 371ZM430.18 371.136C431.514 371.136 432.588 370.472 433.061 369.483L432.141 369.21C431.77 369.892 431.139 370.233 430.334 370.233C429.072 370.233 428.399 369.67 428.642 368.068H433.402L433.47 367.642C433.884 365.205 432.571 364.369 431.203 364.369C429.435 364.369 428.02 365.767 427.692 367.778C427.355 369.79 428.293 371.136 430.18 371.136ZM428.783 367.199C428.983 366.27 429.95 365.273 431.05 365.273C432.145 365.273 432.707 366.091 432.516 367.199H428.783Z" fill="#29375F" fill-opacity="0.6"/>
<path d="M594.358 371H599.864L600.017 370.062H595.96L595.977 369.994L598.278 367.898C600.051 366.295 600.614 365.545 600.784 364.574C601.006 363.227 600.119 362.153 598.585 362.153C597.051 362.153 595.688 363.193 595.432 364.727H596.438C596.608 363.739 597.392 363.074 598.398 363.074C599.352 363.074 599.949 363.653 599.795 364.574C599.659 365.375 599.08 365.972 597.886 367.08L594.494 370.233L594.358 371ZM604.453 371.119C606.379 371.119 607.76 369.483 608.237 366.636C608.71 363.811 607.845 362.153 605.936 362.153C604.027 362.153 602.629 363.807 602.169 366.636C601.705 369.487 602.527 371.119 604.453 371.119ZM604.607 370.182C603.345 370.182 602.817 368.903 603.192 366.636C603.567 364.369 604.521 363.074 605.783 363.074C607.044 363.074 607.589 364.369 607.214 366.636C606.839 368.903 605.885 370.182 604.607 370.182ZM612.516 371H613.521L614.203 366.909C614.357 365.955 615.175 365.273 615.959 365.273C616.726 365.273 617.169 365.767 617.05 366.517L616.3 371H617.322L618.038 366.739C618.175 365.886 618.805 365.273 619.726 365.273C620.442 365.273 620.987 365.648 620.834 366.619L620.101 371H621.107L621.839 366.619C622.095 365.085 621.379 364.369 620.22 364.369C619.283 364.369 618.516 364.795 618.072 365.477H618.004C617.8 364.778 617.288 364.369 616.436 364.369C615.584 364.369 614.885 364.778 614.493 365.477H614.408L614.578 364.455H613.607L612.516 371ZM622.945 371H623.951L625.042 364.455H624.036L622.945 371ZM624.846 363.347C625.238 363.347 625.562 363.04 625.562 362.665C625.562 362.29 625.238 361.983 624.846 361.983C624.454 361.983 624.13 362.29 624.13 362.665C624.13 363.04 624.454 363.347 624.846 363.347ZM627.446 367.062C627.651 365.92 628.452 365.273 629.424 365.273C630.361 365.273 630.821 365.886 630.651 366.909L629.969 371H630.975L631.674 366.841C631.946 365.17 631.179 364.369 629.867 364.369C628.878 364.369 628.179 364.812 627.77 365.477H627.685L627.855 364.455H626.884L625.793 371H626.799L627.446 367.062ZM636.682 371L637.973 368.528H641.501L641.966 371H643.074L641.318 362.273H640.227L635.574 371H636.682ZM638.463 367.591L640.517 363.653H640.585L641.327 367.591H638.463ZM649.92 364.455H648.786L646.11 369.67H646.042L645.104 364.455H644.056L645.386 371H646.408L649.92 364.455ZM652.155 373.591C653.714 373.591 655.095 372.875 655.376 371.188L656.484 364.455H655.513L655.342 365.494H655.24C655.078 365.153 654.797 364.369 653.518 364.369C651.865 364.369 650.506 365.682 650.178 367.693C649.837 369.739 650.838 370.898 652.428 370.898C653.702 370.898 654.234 370.148 654.507 369.79H654.592L654.388 371.119C654.2 372.21 653.322 372.705 652.274 372.705C651.072 372.705 650.791 372.078 650.587 371.716L649.683 372.278C649.986 372.964 650.685 373.591 652.155 373.591ZM652.683 369.994C651.413 369.994 650.957 369.04 651.183 367.676C651.405 366.347 652.163 365.273 653.45 365.273C654.669 365.273 655.202 366.261 654.967 367.676C654.729 369.125 653.885 369.994 652.683 369.994ZM664.547 364.455H663.145L663.405 362.886H662.399L662.139 364.455H661.155L661.018 365.307H661.999L661.325 369.398C661.138 370.54 661.956 371.085 662.808 371.085C663.183 371.085 663.439 371.017 663.592 370.966L663.524 370.062C663.439 370.08 663.303 370.114 663.081 370.114C662.638 370.114 662.229 369.977 662.365 369.125L663 365.307H664.411L664.547 364.455ZM664.969 371H665.974L667.065 364.455H666.06L664.969 371ZM666.869 363.347C667.261 363.347 667.585 363.04 667.585 362.665C667.585 362.29 667.261 361.983 666.869 361.983C666.477 361.983 666.153 362.29 666.153 362.665C666.153 363.04 666.477 363.347 666.869 363.347ZM667.816 371H668.822L669.504 366.909C669.657 365.955 670.475 365.273 671.26 365.273C672.027 365.273 672.47 365.767 672.35 366.517L671.6 371H672.623L673.339 366.739C673.475 365.886 674.106 365.273 675.027 365.273C675.743 365.273 676.288 365.648 676.135 366.619L675.402 371H676.407L677.14 366.619C677.396 365.085 676.68 364.369 675.521 364.369C674.583 364.369 673.816 364.795 673.373 365.477H673.305C673.1 364.778 672.589 364.369 671.737 364.369C670.885 364.369 670.186 364.778 669.794 365.477H669.708L669.879 364.455H668.907L667.816 371ZM680.973 371.136C682.307 371.136 683.381 370.472 683.854 369.483L682.934 369.21C682.563 369.892 681.932 370.233 681.127 370.233C679.865 370.233 679.192 369.67 679.435 368.068H684.195L684.263 367.642C684.676 365.205 683.364 364.369 681.996 364.369C680.228 364.369 678.813 365.767 678.485 367.778C678.148 369.79 679.086 371.136 680.973 371.136ZM679.576 367.199C679.776 366.27 680.743 365.273 681.843 365.273C682.938 365.273 683.5 366.091 683.309 367.199H679.576Z" fill="#29375F" fill-opacity="0.6"/>
<line x1="345" y1="322.5" x2="381" y2="322.5" stroke="#496AD2" stroke-width="5"/>
<line x1="98" y1="322.5" x2="134" y2="322.5" stroke="#DC796F" stroke-width="5"/>
<line x1="594" y1="322.5" x2="630" y2="322.5" stroke="#FDBC60" stroke-width="5"/>
<path d="M595.696 346L596.497 343.69H599.906L600.703 346H602.101L598.96 337.273H597.439L594.298 346H595.696ZM596.881 342.582L598.168 338.858H598.236L599.523 342.582H596.881ZM604.533 342.114C604.533 341.07 605.172 340.473 606.059 340.473C606.924 340.473 607.448 341.04 607.448 341.99V346H608.722V341.837C608.722 340.217 607.831 339.369 606.493 339.369C605.509 339.369 604.865 339.825 604.563 340.52H604.482V339.455H603.259V346H604.533V342.114ZM611.002 348.455C612.054 348.455 612.719 347.905 613.098 346.874L615.804 339.467L614.428 339.455L612.77 344.534H612.702L611.044 339.455H609.681L612.076 346.085L611.918 346.52C611.594 347.389 611.138 347.462 610.439 347.27L610.132 348.314C610.286 348.382 610.618 348.455 611.002 348.455ZM620.06 339.455H618.718V337.886H617.444V339.455H616.485V340.477H617.444V344.342C617.44 345.531 618.347 346.107 619.353 346.085C619.758 346.081 620.031 346.004 620.18 345.949L619.95 344.896C619.864 344.913 619.707 344.952 619.502 344.952C619.089 344.952 618.718 344.815 618.718 344.078V340.477H620.06V339.455ZM621.47 346H622.744V339.455H621.47V346ZM622.113 338.445C622.552 338.445 622.919 338.104 622.919 337.686C622.919 337.268 622.552 336.923 622.113 336.923C621.67 336.923 621.308 337.268 621.308 337.686C621.308 338.104 621.67 338.445 622.113 338.445ZM624.458 346H625.732V341.964C625.732 341.082 626.35 340.469 627.075 340.469C627.782 340.469 628.272 340.938 628.272 341.649V346H629.542V341.828C629.542 341.04 630.023 340.469 630.854 340.469C631.528 340.469 632.082 340.844 632.082 341.73V346H633.356V341.611C633.356 340.115 632.521 339.369 631.336 339.369C630.394 339.369 629.687 339.821 629.371 340.52H629.303C629.018 339.804 628.417 339.369 627.543 339.369C626.678 339.369 626.035 339.8 625.762 340.52H625.681V339.455H624.458V346ZM637.885 346.132C639.312 346.132 640.322 345.429 640.612 344.364L639.406 344.146C639.176 344.764 638.622 345.08 637.897 345.08C636.806 345.08 636.074 344.372 636.039 343.111H640.693V342.659C640.693 340.294 639.278 339.369 637.795 339.369C635.971 339.369 634.77 340.759 634.77 342.77C634.77 344.803 635.954 346.132 637.885 346.132ZM636.044 342.156C636.095 341.227 636.768 340.422 637.804 340.422C638.792 340.422 639.44 341.155 639.444 342.156H636.044ZM652.633 340.111C652.335 338.244 650.873 337.153 649.028 337.153C646.77 337.153 645.103 338.845 645.103 341.636C645.103 344.428 646.761 346.119 649.028 346.119C650.946 346.119 652.348 344.918 652.633 343.192L651.304 343.188C651.078 344.304 650.14 344.918 649.037 344.918C647.541 344.918 646.412 343.771 646.412 341.636C646.412 339.518 647.537 338.355 649.041 338.355C650.153 338.355 651.086 338.982 651.304 340.111H652.633ZM656.864 346.132C658.709 346.132 659.915 344.781 659.915 342.757C659.915 340.72 658.709 339.369 656.864 339.369C655.018 339.369 653.812 340.72 653.812 342.757C653.812 344.781 655.018 346.132 656.864 346.132ZM656.868 345.062C655.662 345.062 655.099 344.01 655.099 342.753C655.099 341.5 655.662 340.435 656.868 340.435C658.065 340.435 658.628 341.5 658.628 342.753C658.628 344.01 658.065 345.062 656.868 345.062ZM662.611 342.114C662.611 341.07 663.25 340.473 664.137 340.473C665.002 340.473 665.526 341.04 665.526 341.99V346H666.8V341.837C666.8 340.217 665.909 339.369 664.571 339.369C663.587 339.369 662.944 339.825 662.641 340.52H662.56V339.455H661.337V346H662.611V342.114ZM673.414 341.053C673.15 340.034 672.353 339.369 670.938 339.369C669.459 339.369 668.411 340.149 668.411 341.308C668.411 342.237 668.973 342.855 670.201 343.128L671.309 343.371C671.939 343.511 672.233 343.793 672.233 344.202C672.233 344.709 671.692 345.105 670.857 345.105C670.094 345.105 669.604 344.777 669.451 344.134L668.219 344.321C668.432 345.48 669.395 346.132 670.865 346.132C672.446 346.132 673.542 345.293 673.542 344.108C673.542 343.183 672.953 342.612 671.752 342.335L670.712 342.097C669.992 341.926 669.681 341.683 669.685 341.24C669.681 340.737 670.226 340.379 670.951 340.379C671.743 340.379 672.11 340.818 672.259 341.257L673.414 341.053ZM679.089 343.286C679.093 344.398 678.266 344.926 677.55 344.926C676.762 344.926 676.217 344.355 676.217 343.464V339.455H674.942V343.618C674.942 345.241 675.833 346.085 677.09 346.085C678.075 346.085 678.744 345.565 679.046 344.866H679.114V346H680.367V339.455H679.089V343.286ZM683.353 337.273H682.079V346H683.353V337.273ZM688.123 339.455H686.781V337.886H685.506V339.455H684.548V340.477H685.506V344.342C685.502 345.531 686.41 346.107 687.415 346.085C687.82 346.081 688.093 346.004 688.242 345.949L688.012 344.896C687.927 344.913 687.769 344.952 687.565 344.952C687.151 344.952 686.781 344.815 686.781 344.078V340.477H688.123V339.455Z" fill="#FDBC60"/>
<path d="M353.54 341.636C353.54 338.845 351.869 337.153 349.611 337.153C347.344 337.153 345.678 338.845 345.678 341.636C345.678 344.423 347.344 346.119 349.611 346.119C351.869 346.119 353.54 344.428 353.54 341.636ZM352.236 341.636C352.236 343.763 351.111 344.918 349.611 344.918C348.107 344.918 346.986 343.763 346.986 341.636C346.986 339.51 348.107 338.355 349.611 338.355C351.111 338.355 352.236 339.51 352.236 341.636ZM356.353 342.114C356.353 341.07 356.993 340.473 357.879 340.473C358.744 340.473 359.268 341.04 359.268 341.99V346H360.542V341.837C360.542 340.217 359.652 339.369 358.314 339.369C357.329 339.369 356.686 339.825 356.383 340.52H356.302V339.455H355.079V346H356.353V342.114ZM363.525 337.273H362.251V346H363.525V337.273ZM365.239 346H366.513V339.455H365.239V346ZM365.883 338.445C366.322 338.445 366.688 338.104 366.688 337.686C366.688 337.268 366.322 336.923 365.883 336.923C365.44 336.923 365.077 337.268 365.077 337.686C365.077 338.104 365.44 338.445 365.883 338.445ZM369.502 342.114C369.502 341.07 370.141 340.473 371.027 340.473C371.892 340.473 372.417 341.04 372.417 341.99V346H373.691V341.837C373.691 340.217 372.8 339.369 371.462 339.369C370.478 339.369 369.834 339.825 369.532 340.52H369.451V339.455H368.228V346H369.502V342.114ZM378.221 346.132C379.648 346.132 380.658 345.429 380.948 344.364L379.742 344.146C379.512 344.764 378.958 345.08 378.233 345.08C377.142 345.08 376.409 344.372 376.375 343.111H381.029V342.659C381.029 340.294 379.614 339.369 378.131 339.369C376.307 339.369 375.105 340.759 375.105 342.77C375.105 344.803 376.29 346.132 378.221 346.132ZM376.38 342.156C376.431 341.227 377.104 340.422 378.14 340.422C379.128 340.422 379.776 341.155 379.78 342.156H376.38ZM386.483 337.273H385.06L388.201 346H389.722L392.863 337.273H391.439L389.01 344.381H388.912L386.483 337.273ZM394.021 346H395.295V339.455H394.021V346ZM394.664 338.445C395.103 338.445 395.469 338.104 395.469 337.686C395.469 337.268 395.103 336.923 394.664 336.923C394.221 336.923 393.859 337.268 393.859 337.686C393.859 338.104 394.221 338.445 394.664 338.445ZM401.914 341.053C401.65 340.034 400.853 339.369 399.438 339.369C397.959 339.369 396.911 340.149 396.911 341.308C396.911 342.237 397.473 342.855 398.701 343.128L399.809 343.371C400.439 343.511 400.733 343.793 400.733 344.202C400.733 344.709 400.192 345.105 399.357 345.105C398.594 345.105 398.104 344.777 397.951 344.134L396.719 344.321C396.932 345.48 397.895 346.132 399.365 346.132C400.946 346.132 402.042 345.293 402.042 344.108C402.042 343.183 401.453 342.612 400.252 342.335L399.212 342.097C398.492 341.926 398.181 341.683 398.185 341.24C398.181 340.737 398.726 340.379 399.451 340.379C400.243 340.379 400.61 340.818 400.759 341.257L401.914 341.053ZM403.442 346H404.717V339.455H403.442V346ZM404.086 338.445C404.525 338.445 404.891 338.104 404.891 337.686C404.891 337.268 404.525 336.923 404.086 336.923C403.643 336.923 403.281 337.268 403.281 337.686C403.281 338.104 403.643 338.445 404.086 338.445ZM409.486 339.455H408.144V337.886H406.87V339.455H405.911V340.477H406.87V344.342C406.865 345.531 407.773 346.107 408.779 346.085C409.184 346.081 409.456 346.004 409.605 345.949L409.375 344.896C409.29 344.913 409.132 344.952 408.928 344.952C408.515 344.952 408.144 344.815 408.144 344.078V340.477H409.486V339.455Z" fill="#496AD2"/>
<path d="M100.623 337.273H99.3065V346H100.623V337.273ZM103.713 342.114C103.713 341.07 104.352 340.473 105.238 340.473C106.103 340.473 106.627 341.04 106.627 341.99V346H107.902V341.837C107.902 340.217 107.011 339.369 105.673 339.369C104.689 339.369 104.045 339.825 103.743 340.52H103.662V339.455H102.439V346H103.713V342.114ZM113.467 341.76H109.598V342.864H113.467V341.76ZM115.165 348.455H116.439V344.982H116.516C116.746 345.399 117.215 346.128 118.408 346.128C119.993 346.128 121.144 344.858 121.144 342.74C121.144 340.618 119.976 339.369 118.395 339.369C117.181 339.369 116.742 340.111 116.516 340.516H116.409V339.455H115.165V348.455ZM116.414 342.727C116.414 341.359 117.01 340.452 118.123 340.452C119.277 340.452 119.857 341.428 119.857 342.727C119.857 344.04 119.26 345.041 118.123 345.041C117.027 345.041 116.414 344.104 116.414 342.727ZM125.392 346.132C126.82 346.132 127.83 345.429 128.12 344.364L126.914 344.146C126.684 344.764 126.13 345.08 125.405 345.08C124.314 345.08 123.581 344.372 123.547 343.111H128.201V342.659C128.201 340.294 126.786 339.369 125.303 339.369C123.479 339.369 122.277 340.759 122.277 342.77C122.277 344.803 123.462 346.132 125.392 346.132ZM123.551 342.156C123.603 341.227 124.276 340.422 125.311 340.422C126.3 340.422 126.948 341.155 126.952 342.156H123.551ZM129.614 346H130.888V342.003C130.888 341.146 131.549 340.528 132.452 340.528C132.717 340.528 133.015 340.575 133.117 340.605V339.386C132.989 339.369 132.738 339.357 132.576 339.357C131.809 339.357 131.153 339.791 130.914 340.494H130.846V339.455H129.614V346ZM139.125 341.053C138.86 340.034 138.064 339.369 136.649 339.369C135.17 339.369 134.122 340.149 134.122 341.308C134.122 342.237 134.684 342.855 135.912 343.128L137.02 343.371C137.65 343.511 137.944 343.793 137.944 344.202C137.944 344.709 137.403 345.105 136.568 345.105C135.805 345.105 135.315 344.777 135.162 344.134L133.93 344.321C134.143 345.48 135.106 346.132 136.576 346.132C138.157 346.132 139.252 345.293 139.252 344.108C139.252 343.183 138.664 342.612 137.463 342.335L136.423 342.097C135.703 341.926 135.392 341.683 135.396 341.24C135.392 340.737 135.937 340.379 136.662 340.379C137.454 340.379 137.821 340.818 137.97 341.257L139.125 341.053ZM143.411 346.132C145.256 346.132 146.462 344.781 146.462 342.757C146.462 340.72 145.256 339.369 143.411 339.369C141.565 339.369 140.359 340.72 140.359 342.757C140.359 344.781 141.565 346.132 143.411 346.132ZM143.415 345.062C142.209 345.062 141.646 344.01 141.646 342.753C141.646 341.5 142.209 340.435 143.415 340.435C144.612 340.435 145.175 341.5 145.175 342.753C145.175 344.01 144.612 345.062 143.415 345.062ZM149.158 342.114C149.158 341.07 149.797 340.473 150.684 340.473C151.549 340.473 152.073 341.04 152.073 341.99V346H153.347V341.837C153.347 340.217 152.456 339.369 151.118 339.369C150.134 339.369 149.49 339.825 149.188 340.52H149.107V339.455H147.884V346H149.158V342.114ZM159.097 337.273H157.673L160.814 346H162.335L165.476 337.273H164.053L161.624 344.381H161.526L159.097 337.273ZM166.634 346H167.908V339.455H166.634V346ZM167.277 338.445C167.716 338.445 168.083 338.104 168.083 337.686C168.083 337.268 167.716 336.923 167.277 336.923C166.834 336.923 166.472 337.268 166.472 337.686C166.472 338.104 166.834 338.445 167.277 338.445ZM174.527 341.053C174.263 340.034 173.466 339.369 172.051 339.369C170.572 339.369 169.524 340.149 169.524 341.308C169.524 342.237 170.087 342.855 171.314 343.128L172.422 343.371C173.053 343.511 173.347 343.793 173.347 344.202C173.347 344.709 172.805 345.105 171.97 345.105C171.207 345.105 170.717 344.777 170.564 344.134L169.332 344.321C169.545 345.48 170.509 346.132 171.979 346.132C173.56 346.132 174.655 345.293 174.655 344.108C174.655 343.183 174.067 342.612 172.865 342.335L171.825 342.097C171.105 341.926 170.794 341.683 170.798 341.24C170.794 340.737 171.339 340.379 172.064 340.379C172.857 340.379 173.223 340.818 173.372 341.257L174.527 341.053ZM176.056 346H177.33V339.455H176.056V346ZM176.699 338.445C177.138 338.445 177.505 338.104 177.505 337.686C177.505 337.268 177.138 336.923 176.699 336.923C176.256 336.923 175.894 337.268 175.894 337.686C175.894 338.104 176.256 338.445 176.699 338.445ZM182.099 339.455H180.757V337.886H179.483V339.455H178.524V340.477H179.483V344.342C179.479 345.531 180.386 346.107 181.392 346.085C181.797 346.081 182.07 346.004 182.219 345.949L181.989 344.896C181.903 344.913 181.746 344.952 181.541 344.952C181.128 344.952 180.757 344.815 180.757 344.078V340.477H182.099V339.455Z" fill="#DC796F"/>
<g clip-path="url(#clip0_7745_1248)">
<path fill-rule="evenodd" clip-rule="evenodd" d="M811 45C806.029 45 802 40.9706 802 36C802 31.0294 806.029 27 811 27C815.971 27 820 31.0294 820 36C820 40.9706 815.971 45 811 45ZM809.968 38.2112H811.853C811.862 37.8772 811.908 37.6014 811.991 37.3839C812.075 37.1664 812.224 36.9543 812.44 36.7478L813.198 36.0425C813.518 35.7305 813.751 35.425 813.896 35.1262C814.041 34.8274 814.114 34.4956 814.114 34.1309C814.114 33.2959 813.845 32.6521 813.306 32.1995C812.768 31.7468 812.009 31.5205 811.029 31.5205C810.044 31.5205 809.28 31.7655 808.735 32.2555C808.19 32.7455 807.913 33.4299 807.904 34.3088H810.132C810.141 33.9792 810.227 33.7178 810.389 33.5244C810.552 33.3311 810.765 33.2344 811.029 33.2344C811.6 33.2344 811.886 33.5662 811.886 34.2297C811.886 34.5022 811.801 34.7516 811.632 34.9779C811.463 35.2042 811.216 35.4536 810.89 35.7261C810.565 35.9985 810.33 36.3204 810.185 36.6918C810.04 37.0631 809.968 37.5696 809.968 38.2112ZM809.697 40.2151C809.697 40.5403 809.815 40.8073 810.05 41.016C810.285 41.2247 810.578 41.3291 810.93 41.3291C811.282 41.3291 811.575 41.2247 811.81 41.016C812.045 40.8073 812.163 40.5403 812.163 40.2151C812.163 39.8899 812.045 39.6229 811.81 39.4142C811.575 39.2054 811.282 39.1011 810.93 39.1011C810.578 39.1011 810.285 39.2054 810.05 39.4142C809.815 39.6229 809.697 39.8899 809.697 40.2151Z" fill="#29375F" fill-opacity="0.3"/>
</g>
<path d="M36.6882 34.4922C36.3239 31.4688 34.0355 29.7301 31.0057 29.7301C27.5476 29.7301 24.9077 32.1719 24.9077 36.4545C24.9077 40.7244 27.5028 43.179 31.0057 43.179C34.3615 43.179 36.3878 40.9482 36.6882 38.5384L33.8885 38.5256C33.6264 39.9254 32.527 40.7308 31.0504 40.7308C29.0625 40.7308 27.7138 39.2543 27.7138 36.4545C27.7138 33.7315 29.0433 32.1783 31.0696 32.1783C32.5845 32.1783 33.6776 33.054 33.8885 34.4922H36.6882ZM51.7828 36.4545C51.7828 32.1719 49.1237 29.7301 45.6528 29.7301C42.1627 29.7301 39.5228 32.1719 39.5228 36.4545C39.5228 40.718 42.1627 43.179 45.6528 43.179C49.1237 43.179 51.7828 40.7372 51.7828 36.4545ZM48.9767 36.4545C48.9767 39.2287 47.6599 40.7308 45.6528 40.7308C43.6393 40.7308 42.3289 39.2287 42.3289 36.4545C42.3289 33.6804 43.6393 32.1783 45.6528 32.1783C47.6599 32.1783 48.9767 33.6804 48.9767 36.4545ZM65.8626 29.9091H63.1076V38.142H62.9926L57.342 29.9091H54.913V43H57.6808V34.7607H57.7767L63.472 43H65.8626V29.9091ZM76.3309 33.674H78.9836C78.9453 31.3409 77.0276 29.7301 74.1129 29.7301C71.2428 29.7301 69.1399 31.3153 69.1526 33.6932C69.1463 35.6236 70.5078 36.7294 72.7194 37.2599L74.1448 37.6179C75.5703 37.9631 76.3629 38.3722 76.3693 39.2543C76.3629 40.2131 75.4552 40.8651 74.049 40.8651C72.6107 40.8651 71.5752 40.2003 71.4857 38.8899H68.8075C68.8778 41.7216 70.9041 43.1854 74.0809 43.1854C77.2769 43.1854 79.1562 41.6577 79.1626 39.2607C79.1562 37.081 77.5134 35.924 75.2379 35.4126L74.0617 35.1314C72.924 34.8693 71.9715 34.4474 71.9907 33.5078C71.9907 32.6641 72.7386 32.044 74.0937 32.044C75.4168 32.044 76.2286 32.6449 76.3309 33.674ZM90.1902 29.9091V38.174C90.1902 39.6697 89.1419 40.75 87.5311 40.75C85.9267 40.75 84.872 39.6697 84.872 38.174V29.9091H82.1043V38.4105C82.1043 41.2741 84.2648 43.1854 87.5311 43.1854C90.7847 43.1854 92.958 41.2741 92.958 38.4105V29.9091H90.1902ZM96.3151 43H104.695V40.718H99.0829V29.9091H96.3151V43ZM105.475 32.1911H109.482V43H112.218V32.1911H116.226V29.9091H105.475V32.1911ZM119.716 43L120.687 40.0149H125.411L126.383 43H129.349L124.836 29.9091H121.269L116.75 43H119.716ZM121.391 37.8544L123.001 32.9006H123.104L124.714 37.8544H121.391ZM129.889 32.1911H133.896V43H136.632V32.1911H140.64V29.9091H129.889V32.1911ZM146.258 29.9091H143.491V43H146.258V29.9091ZM161.645 36.4545C161.645 32.1719 158.986 29.7301 155.515 29.7301C152.025 29.7301 149.385 32.1719 149.385 36.4545C149.385 40.718 152.025 43.179 155.515 43.179C158.986 43.179 161.645 40.7372 161.645 36.4545ZM158.839 36.4545C158.839 39.2287 157.522 40.7308 155.515 40.7308C153.502 40.7308 152.192 39.2287 152.192 36.4545C152.192 33.6804 153.502 32.1783 155.515 32.1783C157.522 32.1783 158.839 33.6804 158.839 36.4545ZM175.725 29.9091H172.97V38.142H172.855L167.205 29.9091H164.776V43H167.543V34.7607H167.639L173.335 43H175.725V29.9091ZM184.338 43H187.106V37.5923H192.724V43H195.486V29.9091H192.724V35.3104H187.106V29.9091H184.338V43ZM201.615 29.9091H198.848V43H201.615V29.9091ZM212.074 33.674H214.727C214.688 31.3409 212.771 29.7301 209.856 29.7301C206.986 29.7301 204.883 31.3153 204.896 33.6932C204.889 35.6236 206.251 36.7294 208.463 37.2599L209.888 37.6179C211.313 37.9631 212.106 38.3722 212.112 39.2543C212.106 40.2131 211.198 40.8651 209.792 40.8651C208.354 40.8651 207.318 40.2003 207.229 38.8899H204.551C204.621 41.7216 206.647 43.1854 209.824 43.1854C213.02 43.1854 214.899 41.6577 214.906 39.2607C214.899 37.081 213.257 35.924 210.981 35.4126L209.805 35.1314C208.667 34.8693 207.715 34.4474 207.734 33.5078C207.734 32.6641 208.482 32.044 209.837 32.044C211.16 32.044 211.972 32.6449 212.074 33.674ZM217.349 32.1911H221.357V43H224.092V32.1911H228.1V29.9091H217.349V32.1911ZM242.401 36.4545C242.401 32.1719 239.742 29.7301 236.271 29.7301C232.781 29.7301 230.141 32.1719 230.141 36.4545C230.141 40.718 232.781 43.179 236.271 43.179C239.742 43.179 242.401 40.7372 242.401 36.4545ZM239.595 36.4545C239.595 39.2287 238.278 40.7308 236.271 40.7308C234.257 40.7308 232.947 39.2287 232.947 36.4545C232.947 33.6804 234.257 32.1783 236.271 32.1783C238.278 32.1783 239.595 33.6804 239.595 36.4545ZM245.531 43H248.299V38.3594H250.319L252.799 43H255.854L253.074 37.9119C254.563 37.2727 255.387 35.9751 255.387 34.1854C255.387 31.5838 253.668 29.9091 250.696 29.9091H245.531V43ZM248.299 36.1349V32.1719H250.165C251.763 32.1719 252.537 32.8814 252.537 34.1854C252.537 35.483 251.763 36.1349 250.178 36.1349H248.299ZM257.111 29.9091L261.886 38.3722V43H264.635V38.3722L269.41 29.9091H266.31L263.325 35.5469H263.197L260.212 29.9091H257.111Z" fill="#29375F" fill-opacity="0.4"/>
<rect x="15" y="102" width="805" height="187" rx="6" fill="white"/>
<g opacity="0.1">
<path fill-rule="evenodd" clip-rule="evenodd" d="M96.2402 110.25C96.2402 110.112 96.3522 110 96.4902 110H819.256C819.394 110 819.506 110.112 819.506 110.25C819.506 110.388 819.394 110.5 819.256 110.5H96.4902C96.3522 110.5 96.2402 110.388 96.2402 110.25Z" fill="black"/>
<path fill-rule="evenodd" clip-rule="evenodd" d="M96.2402 159.25C96.2402 159.112 96.3522 159 96.4902 159H819.256C819.394 159 819.506 159.112 819.506 159.25C819.506 159.388 819.394 159.5 819.256 159.5H96.4902C96.3522 159.5 96.2402 159.388 96.2402 159.25Z" fill="black"/>
<path fill-rule="evenodd" clip-rule="evenodd" d="M96.2402 208.25C96.2402 208.112 96.3522 208 96.4902 208H819.256C819.394 208 819.506 208.112 819.506 208.25C819.506 208.388 819.394 208.5 819.256 208.5H96.4902C96.3522 208.5 96.2402 208.388 96.2402 208.25Z" fill="black"/>
<path fill-rule="evenodd" clip-rule="evenodd" d="M96.2402 257.25C96.2402 257.112 96.3522 257 96.4902 257H819.256C819.394 257 819.506 257.112 819.506 257.25C819.506 257.388 819.394 257.5 819.256 257.5H96.4902C96.3522 257.5 96.2402 257.388 96.2402 257.25Z" fill="black"/>
<path fill-rule="evenodd" clip-rule="evenodd" d="M-nan -nanL336.834 110V257L-nan -nanL336.834 257V110L-nan -nanZ" fill="black"/>
<path d="M336.834 110V257L-nan -nanL-nan -nanL336.834 257V110L-nan -nanL-nan -nanL336.834 110Z" stroke="black"/>
<path fill-rule="evenodd" clip-rule="evenodd" d="M217.166 110C217.442 110 217.666 110.224 217.666 110.5V256.5C217.666 256.776 217.442 257 217.166 257C216.89 257 216.666 256.776 216.666 256.5V110.5C216.666 110.224 216.89 110 217.166 110Z" fill="black"/>
<path fill-rule="evenodd" clip-rule="evenodd" d="M457.666 110C457.942 110 458.166 110.224 458.166 110.5V256.5C458.166 256.776 457.942 257 457.666 257C457.39 257 457.166 256.776 457.166 256.5V110.5C457.166 110.224 457.39 110 457.666 110Z" fill="black"/>
<path fill-rule="evenodd" clip-rule="evenodd" d="M-nan -nanL577.332 110V257L-nan -nanL577.332 257V110L-nan -nanZ" fill="black"/>
<path d="M577.332 110V257L-nan -nanL-nan -nanL577.332 257V110L-nan -nanL-nan -nanL577.332 110Z" stroke="black"/>
<path fill-rule="evenodd" clip-rule="evenodd" d="M819.498 110C819.774 110 819.998 110.224 819.998 110.5V256.5C819.998 256.776 819.774 257 819.498 257C819.222 257 818.998 256.776 818.998 256.5V110.5C818.998 110.224 819.222 110 819.498 110Z" fill="black"/>
<path fill-rule="evenodd" clip-rule="evenodd" d="M698.166 110C698.442 110 698.666 110.224 698.666 110.5V256.5C698.666 256.776 698.442 257 698.166 257C697.89 257 697.666 256.776 697.666 256.5V110.5C697.666 110.224 697.89 110 698.166 110Z" fill="black"/>
</g>
<g clip-path="url(#clip1_7745_1248)">
<path d="M98.2087 274H102.996V273.059H99.7215V273.006L101.167 271.493C102.498 270.147 102.878 269.504 102.878 268.691C102.878 267.523 101.927 266.628 100.556 266.628C99.1959 266.628 98.2016 267.509 98.2016 268.837H99.2492C99.2456 268.055 99.7499 267.544 100.535 267.544C101.273 267.544 101.834 267.999 101.834 268.723C101.834 269.366 101.451 269.827 100.67 270.655L98.2087 273.205V274ZM106.742 274.099C108.205 274.099 109.249 273.066 109.246 271.649C109.249 270.243 108.269 269.22 106.944 269.22C106.405 269.22 105.904 269.426 105.62 269.703H105.577L105.808 267.668H108.894V266.727H104.895L104.487 270.392L105.492 270.541C105.766 270.296 106.256 270.129 106.696 270.129C107.559 270.136 108.184 270.783 108.184 271.67C108.184 272.544 107.577 273.176 106.742 273.176C106.039 273.176 105.481 272.729 105.425 272.104H104.359C104.402 273.261 105.407 274.099 106.742 274.099ZM96.8522 286L97.5198 284.075H100.361L101.025 286H102.19L99.5723 278.727H98.3046L95.6874 286H96.8522ZM97.8394 283.152L98.9118 280.048H98.9686L100.041 283.152H97.8394ZM106.61 283.738C106.613 284.665 105.924 285.105 105.328 285.105C104.671 285.105 104.216 284.629 104.216 283.887V280.545H103.155V284.015C103.155 285.368 103.897 286.071 104.944 286.071C105.765 286.071 106.322 285.638 106.574 285.055H106.631V286H107.675V280.545H106.61V283.738ZM111.389 288.159C112.777 288.159 113.85 287.523 113.85 286.121V280.545H112.809V281.43H112.731C112.543 281.092 112.166 280.474 111.151 280.474C109.833 280.474 108.864 281.515 108.864 283.251C108.864 284.991 109.855 285.918 111.144 285.918C112.145 285.918 112.532 285.354 112.724 285.006H112.791V286.078C112.791 286.934 112.205 287.303 111.399 287.303C110.515 287.303 110.171 286.859 109.982 286.547L109.07 286.923C109.357 287.591 110.085 288.159 111.389 288.159ZM111.378 285.038C110.43 285.038 109.936 284.31 109.936 283.237C109.936 282.19 110.419 281.376 111.378 281.376C112.305 281.376 112.802 282.133 112.802 283.237C112.802 284.363 112.294 285.038 111.378 285.038Z" fill="#203765" fill-opacity="0.4"/>
<path d="M338.913 274H343.7V273.059H340.426V273.006L341.871 271.493C343.203 270.147 343.583 269.504 343.583 268.691C343.583 267.523 342.631 266.628 341.26 266.628C339.9 266.628 338.906 267.509 338.906 268.837H339.954C339.95 268.055 340.454 267.544 341.239 267.544C341.978 267.544 342.539 267.999 342.539 268.723C342.539 269.366 342.155 269.827 341.374 270.655L338.913 273.205V274ZM345.291 274H346.438L349.602 267.7V266.727H344.794V267.668H348.466V267.722L345.291 274ZM337.352 286L338.019 284.075H340.86L341.524 286H342.689L340.072 278.727H338.804L336.187 286H337.352ZM338.339 283.152L339.411 280.048H339.468L340.54 283.152H338.339ZM347.109 283.738C347.113 284.665 346.424 285.105 345.827 285.105C345.17 285.105 344.716 284.629 344.716 283.887V280.545H343.654V284.015C343.654 285.368 344.396 286.071 345.444 286.071C346.264 286.071 346.822 285.638 347.074 285.055H347.13V286H348.174V280.545H347.109V283.738ZM351.888 288.159C353.277 288.159 354.349 287.523 354.349 286.121V280.545H353.309V281.43H353.23C353.042 281.092 352.666 280.474 351.65 280.474C350.333 280.474 349.363 281.515 349.363 283.251C349.363 284.991 350.354 285.918 351.643 285.918C352.644 285.918 353.032 285.354 353.223 285.006H353.291V286.078C353.291 286.934 352.705 287.303 351.899 287.303C351.015 287.303 350.67 286.859 350.482 286.547L349.569 286.923C349.857 287.591 350.585 288.159 351.888 288.159ZM351.877 285.038C350.929 285.038 350.436 284.31 350.436 283.237C350.436 282.19 350.919 281.376 351.877 281.376C352.804 281.376 353.301 282.133 353.301 283.237C353.301 284.363 352.794 285.038 351.877 285.038Z" fill="#203765" fill-opacity="0.4"/>
<path d="M225.964 274H230.751V273.059H227.477V273.006L228.922 271.493C230.254 270.147 230.634 269.504 230.634 268.691C230.634 267.523 229.682 266.628 228.311 266.628C226.951 266.628 225.957 267.509 225.957 268.837H227.004C227.001 268.055 227.505 267.544 228.29 267.544C229.029 267.544 229.59 267.999 229.59 268.723C229.59 269.366 229.206 269.827 228.425 270.655L225.964 273.205V274ZM234.636 274.099C236.156 274.114 237.164 273.02 237.161 271.624C237.164 270.232 236.152 269.234 234.891 269.234C234.124 269.234 233.46 269.604 233.087 270.218H233.034C233.038 268.567 233.663 267.587 234.728 267.587C235.428 267.587 235.868 268.013 236.017 268.616H237.1C236.933 267.466 236.028 266.628 234.728 266.628C233.038 266.628 231.983 268.08 231.983 270.609C231.98 273.286 233.343 274.089 234.636 274.099ZM234.632 273.176C233.787 273.176 233.169 272.466 233.169 271.649C233.173 270.836 233.819 270.126 234.657 270.126C235.488 270.126 236.099 270.797 236.095 271.638C236.099 272.498 235.463 273.176 234.632 273.176ZM224.685 286L225.353 284.075H228.194L228.858 286H230.023L227.406 278.727H226.138L223.521 286H224.685ZM225.673 283.152L226.745 280.048H226.802L227.874 283.152H225.673ZM234.443 283.738C234.447 284.665 233.758 285.105 233.161 285.105C232.504 285.105 232.05 284.629 232.05 283.887V280.545H230.988V284.015C230.988 285.368 231.73 286.071 232.778 286.071C233.598 286.071 234.155 285.638 234.408 285.055H234.464V286H235.508V280.545H234.443V283.738ZM239.222 288.159C240.611 288.159 241.683 287.523 241.683 286.121V280.545H240.643V281.43H240.564C240.376 281.092 240 280.474 238.984 280.474C237.667 280.474 236.697 281.515 236.697 283.251C236.697 284.991 237.688 285.918 238.977 285.918C239.978 285.918 240.366 285.354 240.557 285.006H240.625V286.078C240.625 286.934 240.039 287.303 239.233 287.303C238.348 287.303 238.004 286.859 237.816 286.547L236.903 286.923C237.191 287.591 237.919 288.159 239.222 288.159ZM239.211 285.038C238.263 285.038 237.77 284.31 237.77 283.237C237.77 282.19 238.253 281.376 239.211 281.376C240.138 281.376 240.635 282.133 240.635 283.237C240.635 284.363 240.128 285.038 239.211 285.038Z" fill="#203765" fill-opacity="0.4"/>
<path d="M451.317 274H456.104V273.059H452.83V273.006L454.276 271.493C455.607 270.147 455.987 269.504 455.987 268.691C455.987 267.523 455.035 266.628 453.665 266.628C452.305 266.628 451.31 267.509 451.31 268.837H452.358C452.354 268.055 452.859 267.544 453.643 267.544C454.382 267.544 454.943 267.999 454.943 268.723C454.943 269.366 454.56 269.827 453.778 270.655L451.317 273.205V274ZM459.908 274.099C461.42 274.099 462.489 273.24 462.496 272.061C462.489 271.145 461.847 270.374 461.033 270.229V270.186C461.74 270.016 462.219 269.352 462.227 268.567C462.219 267.455 461.239 266.628 459.908 266.628C458.562 266.628 457.582 267.455 457.589 268.567C457.582 269.348 458.061 270.016 458.782 270.186V270.229C457.954 270.374 457.312 271.145 457.319 272.061C457.312 273.24 458.381 274.099 459.908 274.099ZM459.908 273.201C458.999 273.201 458.423 272.718 458.43 271.99C458.423 271.234 459.048 270.694 459.908 270.694C460.753 270.694 461.378 271.234 461.385 271.99C461.378 272.718 460.806 273.201 459.908 273.201ZM459.908 269.817C459.173 269.817 458.651 269.352 458.658 268.659C458.651 267.977 459.155 267.526 459.908 267.526C460.646 267.526 461.151 267.977 461.158 268.659C461.151 269.352 460.632 269.817 459.908 269.817ZM450.019 286L450.687 284.075H453.528L454.192 286H455.357L452.74 278.727H451.472L448.855 286H450.019ZM451.007 283.152L452.079 280.048H452.136L453.208 283.152H451.007ZM459.777 283.738C459.781 284.665 459.092 285.105 458.495 285.105C457.838 285.105 457.384 284.629 457.384 283.887V280.545H456.322V284.015C456.322 285.368 457.064 286.071 458.112 286.071C458.932 286.071 459.489 285.638 459.742 285.055H459.798V286H460.842V280.545H459.777V283.738ZM464.556 288.159C465.945 288.159 467.017 287.523 467.017 286.121V280.545H465.977V281.43H465.898C465.71 281.092 465.334 280.474 464.318 280.474C463.001 280.474 462.031 281.515 462.031 283.251C462.031 284.991 463.022 285.918 464.311 285.918C465.312 285.918 465.7 285.354 465.891 285.006H465.959V286.078C465.959 286.934 465.373 287.303 464.567 287.303C463.682 287.303 463.338 286.859 463.15 286.547L462.237 286.923C462.525 287.591 463.253 288.159 464.556 288.159ZM464.545 285.038C463.597 285.038 463.104 284.31 463.104 283.237C463.104 282.19 463.587 281.376 464.545 281.376C465.472 281.376 465.969 282.133 465.969 283.237C465.969 284.363 465.462 285.038 464.545 285.038Z" fill="#203765" fill-opacity="0.4"/>
<path d="M563.964 274H568.751V273.059H565.477V273.006L566.922 271.493C568.254 270.147 568.634 269.504 568.634 268.691C568.634 267.523 567.682 266.628 566.311 266.628C564.951 266.628 563.957 267.509 563.957 268.837H565.004C565.001 268.055 565.505 267.544 566.29 267.544C567.029 267.544 567.59 267.999 567.59 268.723C567.59 269.366 567.206 269.827 566.425 270.655L563.964 273.205V274ZM572.515 266.628C570.988 266.614 569.99 267.711 569.99 269.089C569.994 270.477 570.999 271.479 572.259 271.479C573.03 271.479 573.69 271.102 574.063 270.491H574.12C574.117 272.164 573.488 273.141 572.423 273.141C571.727 273.141 571.279 272.714 571.137 272.093H570.054C570.214 273.268 571.123 274.099 572.423 274.099C574.113 274.099 575.171 272.647 575.171 270.101C575.168 267.445 573.811 266.638 572.515 266.628ZM572.519 267.551C573.36 267.551 573.982 268.265 573.982 269.064C573.985 269.874 573.328 270.584 572.497 270.584C571.663 270.584 571.059 269.916 571.056 269.075C571.056 268.229 571.684 267.551 572.519 267.551ZM562.685 286L563.353 284.075H566.194L566.858 286H568.023L565.406 278.727H564.138L561.521 286H562.685ZM563.673 283.152L564.745 280.048H564.802L565.874 283.152H563.673ZM572.443 283.738C572.447 284.665 571.758 285.105 571.161 285.105C570.504 285.105 570.05 284.629 570.05 283.887V280.545H568.988V284.015C568.988 285.368 569.73 286.071 570.778 286.071C571.598 286.071 572.155 285.638 572.408 285.055H572.464V286H573.508V280.545H572.443V283.738ZM577.222 288.159C578.611 288.159 579.683 287.523 579.683 286.121V280.545H578.643V281.43H578.564C578.376 281.092 578 280.474 576.984 280.474C575.667 280.474 574.697 281.515 574.697 283.251C574.697 284.991 575.688 285.918 576.977 285.918C577.978 285.918 578.366 285.354 578.557 285.006H578.625V286.078C578.625 286.934 578.039 287.303 577.233 287.303C576.348 287.303 576.004 286.859 575.816 286.547L574.903 286.923C575.191 287.591 575.919 288.159 577.222 288.159ZM577.211 285.038C576.263 285.038 575.77 284.31 575.77 283.237C575.77 282.19 576.253 281.376 577.211 281.376C578.138 281.376 578.635 282.133 578.635 283.237C578.635 284.363 578.128 285.038 577.211 285.038Z" fill="#203765" fill-opacity="0.4"/>
<path d="M680.28 274.099C681.764 274.099 682.855 273.212 682.851 272.004C682.855 271.085 682.297 270.424 681.331 270.275V270.218C682.091 270.023 682.585 269.426 682.581 268.609C682.585 267.54 681.708 266.628 680.308 266.628C678.973 266.628 677.901 267.434 677.865 268.616H678.927C678.952 267.949 679.58 267.544 680.294 267.544C681.036 267.544 681.523 267.995 681.519 268.666C681.523 269.369 680.958 269.831 680.152 269.831H679.538V270.726H680.152C681.161 270.726 681.743 271.237 681.743 271.969C681.743 272.675 681.129 273.155 680.273 273.155C679.485 273.155 678.87 272.75 678.828 272.104H677.713C677.759 273.29 678.81 274.099 680.28 274.099ZM686.725 274.121C688.405 274.121 689.389 272.75 689.389 270.367C689.389 268.002 688.391 266.628 686.725 266.628C685.056 266.628 684.062 267.999 684.058 270.367C684.058 272.746 685.042 274.117 686.725 274.121ZM686.725 273.173C685.742 273.173 685.149 272.185 685.149 270.367C685.152 268.556 685.745 267.558 686.725 267.558C687.702 267.558 688.299 268.556 688.299 270.367C688.299 272.185 687.705 273.173 686.725 273.173ZM675.352 286L676.019 284.075H678.86L679.524 286H680.689L678.072 278.727H676.804L674.187 286H675.352ZM676.339 283.152L677.411 280.048H677.468L678.54 283.152H676.339ZM685.109 283.738C685.113 284.665 684.424 285.105 683.827 285.105C683.17 285.105 682.716 284.629 682.716 283.887V280.545H681.654V284.015C681.654 285.368 682.396 286.071 683.444 286.071C684.264 286.071 684.822 285.638 685.074 285.055H685.13V286H686.174V280.545H685.109V283.738ZM689.888 288.159C691.277 288.159 692.349 287.523 692.349 286.121V280.545H691.309V281.43H691.23C691.042 281.092 690.666 280.474 689.65 280.474C688.333 280.474 687.363 281.515 687.363 283.251C687.363 284.991 688.354 285.918 689.643 285.918C690.644 285.918 691.032 285.354 691.223 285.006H691.291V286.078C691.291 286.934 690.705 287.303 689.899 287.303C689.015 287.303 688.67 286.859 688.482 286.547L687.569 286.923C687.857 287.591 688.585 288.159 689.888 288.159ZM689.877 285.038C688.929 285.038 688.436 284.31 688.436 283.237C688.436 282.19 688.919 281.376 689.877 281.376C690.804 281.376 691.301 282.133 691.301 283.237C691.301 284.363 690.794 285.038 689.877 285.038Z" fill="#203765" fill-opacity="0.4"/>
<path d="M793.812 274.099C795.297 274.099 796.387 273.212 796.383 272.004C796.387 271.085 795.829 270.424 794.863 270.275V270.218C795.623 270.023 796.117 269.426 796.113 268.609C796.117 267.54 795.24 266.628 793.841 266.628C792.505 266.628 791.433 267.434 791.397 268.616H792.459C792.484 267.949 793.113 267.544 793.826 267.544C794.569 267.544 795.055 267.995 795.052 268.666C795.055 269.369 794.491 269.831 793.684 269.831H793.07V270.726H793.684C794.693 270.726 795.275 271.237 795.275 271.969C795.275 272.675 794.661 273.155 793.805 273.155C793.017 273.155 792.402 272.75 792.36 272.104H791.245C791.291 273.29 792.342 274.099 793.812 274.099ZM800.485 266.727H799.416L797.601 267.913V268.964L799.341 267.828H799.384V274H800.485V266.727ZM788.019 286L788.687 284.075H791.528L792.192 286H793.357L790.74 278.727H789.472L786.855 286H788.019ZM789.007 283.152L790.079 280.048H790.136L791.208 283.152H789.007ZM797.777 283.738C797.781 284.665 797.092 285.105 796.495 285.105C795.838 285.105 795.384 284.629 795.384 283.887V280.545H794.322V284.015C794.322 285.368 795.064 286.071 796.112 286.071C796.932 286.071 797.489 285.638 797.742 285.055H797.798V286H798.842V280.545H797.777V283.738ZM802.556 288.159C803.945 288.159 805.017 287.523 805.017 286.121V280.545H803.976V281.43H803.898C803.71 281.092 803.334 280.474 802.318 280.474C801.001 280.474 800.031 281.515 800.031 283.251C800.031 284.991 801.022 285.918 802.311 285.918C803.312 285.918 803.7 285.354 803.891 285.006H803.959V286.078C803.959 286.934 803.373 287.303 802.567 287.303C801.682 287.303 801.338 286.859 801.15 286.547L800.237 286.923C800.525 287.591 801.253 288.159 802.556 288.159ZM802.545 285.038C801.597 285.038 801.104 284.31 801.104 283.237C801.104 282.19 801.587 281.376 802.545 281.376C803.472 281.376 803.969 282.133 803.969 283.237C803.969 284.363 803.462 285.038 802.545 285.038Z" fill="#203765" fill-opacity="0.4"/>
</g>
<path d="M98 195.786L216.082 141.088L337.5 175.191L458.303 168.158L590.324 212L697.495 175.191L818 159.116" stroke="#496AD2" stroke-width="2.6" stroke-linecap="round"/>
<path d="M98 215.786L212.5 179.116L337.193 124L458.303 198.158L590.324 222L697.495 155.191L818 179.116" stroke="#DC796F" stroke-width="2.6" stroke-linecap="round"/>
<path d="M98 235.786L216.082 201.088L335.5 223.158L458.303 208.158L590.324 232L697.495 238.191L818 209.116" stroke="#FDB756" stroke-width="2.6" stroke-linecap="round"/>
<path d="M58.4105 114.509H61.8338V116H62.6719V114.509H63.6662V113.727H62.6719V108.727H61.6065L58.4105 113.784V114.509ZM61.8338 113.727H59.3622V113.67L61.777 109.849H61.8338V113.727ZM67.3691 116.099C68.9743 116.099 69.8975 114.739 69.8975 112.364C69.8975 110.006 68.96 108.628 67.3691 108.628C65.7782 108.628 64.8407 110.006 64.8407 112.364C64.8407 114.739 65.764 116.099 67.3691 116.099ZM67.3691 115.318C66.3109 115.318 65.693 114.256 65.693 112.364C65.693 110.474 66.318 109.395 67.3691 109.395C68.4203 109.395 69.0453 110.474 69.0453 112.364C69.0453 114.256 68.4274 115.318 67.3691 115.318ZM73.6191 116.099C75.2243 116.099 76.1475 114.739 76.1475 112.364C76.1475 110.006 75.21 108.628 73.6191 108.628C72.0282 108.628 71.0907 110.006 71.0907 112.364C71.0907 114.739 72.014 116.099 73.6191 116.099ZM73.6191 115.318C72.5609 115.318 71.943 114.256 71.943 112.364C71.943 110.474 72.568 109.395 73.6191 109.395C74.6703 109.395 75.2953 110.474 75.2953 112.364C75.2953 114.256 74.6774 115.318 73.6191 115.318Z" fill="#203765" fill-opacity="0.4"/>
<path d="M61.0384 162.099C62.4482 162.099 63.4957 161.215 63.4957 160.026C63.4957 159.102 62.9489 158.431 62.0327 158.278V158.222C62.7678 157.998 63.2259 157.394 63.2259 156.574C63.2259 155.544 62.4126 154.628 61.0668 154.628C59.8097 154.628 58.7656 155.402 58.723 156.545H59.5753C59.6072 155.821 60.2962 155.395 61.0526 155.395C61.8551 155.395 62.3736 155.881 62.3736 156.616C62.3736 157.384 61.7734 157.881 60.9105 157.881H60.3281V158.662H60.9105C62.0149 158.662 62.6293 159.223 62.6293 160.026C62.6293 160.796 61.9581 161.318 61.0241 161.318C60.1825 161.318 59.5149 160.885 59.4616 160.182H58.5668C58.62 161.325 59.6286 162.099 61.0384 162.099ZM67.3203 162.099C68.9254 162.099 69.8487 160.739 69.8487 158.364C69.8487 156.006 68.9112 154.628 67.3203 154.628C65.7294 154.628 64.7919 156.006 64.7919 158.364C64.7919 160.739 65.7152 162.099 67.3203 162.099ZM67.3203 161.318C66.2621 161.318 65.6442 160.256 65.6442 158.364C65.6442 156.474 66.2692 155.395 67.3203 155.395C68.3714 155.395 68.9964 156.474 68.9964 158.364C68.9964 160.256 68.3786 161.318 67.3203 161.318ZM73.5703 162.099C75.1754 162.099 76.0987 160.739 76.0987 158.364C76.0987 156.006 75.1612 154.628 73.5703 154.628C71.9794 154.628 71.0419 156.006 71.0419 158.364C71.0419 160.739 71.9652 162.099 73.5703 162.099ZM73.5703 161.318C72.5121 161.318 71.8942 160.256 71.8942 158.364C71.8942 156.474 72.5192 155.395 73.5703 155.395C74.6214 155.395 75.2464 156.474 75.2464 158.364C75.2464 160.256 74.6286 161.318 73.5703 161.318Z" fill="#203765" fill-opacity="0.4"/>
<path d="M58.581 214H63.169V213.219H59.7884V213.162L61.4219 211.415C62.6719 210.076 63.0412 209.451 63.0412 208.645C63.0412 207.523 62.1321 206.628 60.8537 206.628C59.5788 206.628 58.6094 207.494 58.6094 208.773H59.4474C59.4474 207.945 59.9837 207.395 60.8253 207.395C61.6136 207.395 62.2173 207.878 62.2173 208.645C62.2173 209.316 61.8232 209.813 60.9815 210.733L58.581 213.361V214ZM67.0078 214.099C68.6129 214.099 69.5362 212.739 69.5362 210.364C69.5362 208.006 68.5987 206.628 67.0078 206.628C65.4169 206.628 64.4794 208.006 64.4794 210.364C64.4794 212.739 65.4027 214.099 67.0078 214.099ZM67.0078 213.318C65.9496 213.318 65.3317 212.256 65.3317 210.364C65.3317 208.474 65.9567 207.395 67.0078 207.395C68.0589 207.395 68.6839 208.474 68.6839 210.364C68.6839 212.256 68.0661 213.318 67.0078 213.318ZM73.2578 214.099C74.8629 214.099 75.7862 212.739 75.7862 210.364C75.7862 208.006 74.8487 206.628 73.2578 206.628C71.6669 206.628 70.7294 208.006 70.7294 210.364C70.7294 212.739 71.6527 214.099 73.2578 214.099ZM73.2578 213.318C72.1996 213.318 71.5817 212.256 71.5817 210.364C71.5817 208.474 72.2067 207.395 73.2578 207.395C74.3089 207.395 74.9339 208.474 74.9339 210.364C74.9339 212.256 74.3161 213.318 73.2578 213.318Z" fill="#203765" fill-opacity="0.4"/>
<path d="M61.1378 250.727H60.2571L58.4389 251.935V252.83L60.2145 251.651H60.2571V258H61.1378V250.727ZM65.6016 258.099C67.2067 258.099 68.13 256.739 68.13 254.364C68.13 252.006 67.1925 250.628 65.6016 250.628C64.0107 250.628 63.0732 252.006 63.0732 254.364C63.0732 256.739 63.9964 258.099 65.6016 258.099ZM65.6016 257.318C64.5433 257.318 63.9254 256.256 63.9254 254.364C63.9254 252.474 64.5504 251.395 65.6016 251.395C66.6527 251.395 67.2777 252.474 67.2777 254.364C67.2777 256.256 66.6598 257.318 65.6016 257.318ZM71.8516 258.099C73.4567 258.099 74.38 256.739 74.38 254.364C74.38 252.006 73.4425 250.628 71.8516 250.628C70.2607 250.628 69.3232 252.006 69.3232 254.364C69.3232 256.739 70.2464 258.099 71.8516 258.099ZM71.8516 257.318C70.7933 257.318 70.1754 256.256 70.1754 254.364C70.1754 252.474 70.8004 251.395 71.8516 251.395C72.9027 251.395 73.5277 252.474 73.5277 254.364C73.5277 256.256 72.9098 257.318 71.8516 257.318Z" fill="#203765" fill-opacity="0.4"/>
<line x1="4.37114e-08" y1="79.5" x2="846" y2="79.5001" stroke="#29375F" stroke-opacity="0.2"/>
<path d="M31.7335 249.212L31.733 250.079L37.4574 250.082L37.4573 250.153L31.7304 254.127L31.7299 254.979L39.0026 254.984L39.0031 254.103L33.2929 254.1L33.293 254.029L39.0057 250.069L39.0062 249.217L31.7335 249.212ZM39.1223 245.352C39.1232 243.875 38.0017 242.88 36.3113 242.879C34.6068 242.878 33.484 243.872 33.4831 245.349C33.4822 246.826 34.6037 247.821 36.3082 247.822C37.9986 247.823 39.1214 246.83 39.1223 245.352ZM38.3694 245.352C38.3687 246.474 37.4025 246.985 36.3088 246.984C35.215 246.984 34.2352 246.472 34.2359 245.349C34.2366 244.227 35.2171 243.716 36.3108 243.717C37.4046 243.718 38.3702 244.23 38.3694 245.352ZM39.1278 236.573C39.1287 235.096 38.0072 234.101 36.3169 234.1C34.6123 234.099 33.4895 235.092 33.4886 236.57C33.4877 238.047 34.6092 239.042 36.3138 239.043C38.0041 239.044 39.1269 238.05 39.1278 236.573ZM38.375 236.573C38.3743 237.695 37.408 238.206 36.3143 238.205C35.2205 238.204 34.2407 237.692 34.2414 236.57C34.2422 235.448 35.2226 234.937 36.3163 234.938C37.4101 234.939 38.3757 235.451 38.375 236.573ZM33.5635 230.39L33.5627 231.611L33.0088 231.611C32.469 231.611 32.185 231.383 32.1854 230.829C32.1855 230.588 32.2425 230.446 32.2709 230.361L31.5466 230.119C31.4897 230.246 31.4044 230.502 31.4041 230.914C31.4036 231.695 31.8719 232.448 32.8094 232.449L33.5622 232.449L33.5617 233.33L34.2719 233.331L34.2724 232.45L39.0168 232.453L39.0173 231.615L34.273 231.612L34.2737 230.39L33.5635 230.39ZM39.0224 223.48L39.023 222.599L36.3667 222.598L36.3677 221.007C36.3688 219.313 35.3394 218.549 34.0539 218.548C32.7684 218.547 31.7523 219.31 31.7512 221.018L31.7497 223.475L39.0224 223.48ZM35.5855 222.597L32.5315 222.595L32.5325 221.047C32.5332 219.864 33.1798 219.414 34.0534 219.414C34.927 219.415 35.5872 219.866 35.5864 221.035L35.5855 222.597ZM39.1552 215.641C39.1558 214.689 38.6447 214.192 38.2897 214.021L38.2897 213.979L39.0284 213.979L39.0289 213.141L35.4352 213.139C33.7022 213.138 33.5025 214.458 33.5021 215.154C33.5016 215.978 33.7851 216.916 34.7791 217.343L35.0637 216.548C34.6661 216.363 34.2402 215.926 34.2407 215.127C34.2412 214.356 34.6498 213.976 35.3494 213.977L35.3778 213.977C35.7826 213.977 35.7469 214.389 35.8741 215.383C36.0048 216.395 36.2279 217.5 37.4779 217.501C38.5432 217.501 39.1545 216.678 39.1552 215.641ZM38.4024 215.513C38.402 216.18 38.1034 216.663 37.521 216.663C36.8818 216.662 36.6833 216.08 36.5985 215.426C36.5561 215.071 36.4573 214.119 36.2869 213.977L37.054 213.978C37.7358 213.978 38.403 214.518 38.4024 215.513ZM33.5768 209.236L33.5761 210.4L32.2693 210.4L32.2687 211.238L33.5756 211.239L33.575 212.062L34.2853 212.063L34.2858 211.239L37.6949 211.241C38.6466 211.242 39.1016 210.475 39.1021 209.765C39.1023 209.452 39.0456 209.253 39.003 209.14L38.2501 209.31C38.2642 209.381 38.2926 209.494 38.2925 209.679C38.2922 210.048 38.1784 210.403 37.4681 210.403L34.2863 210.401L34.287 209.236L33.5768 209.236ZM39.0322 207.978L39.0327 207.14L33.5781 207.137L33.5776 207.975L39.0322 207.978ZM32.6688 207.548C32.669 207.222 32.4135 206.952 32.101 206.951C31.7885 206.951 31.5326 207.221 31.5324 207.548C31.5322 207.874 31.7877 208.144 32.1002 208.145C32.4127 208.145 32.6686 207.875 32.6688 207.548ZM39.1487 203.319C39.1494 202.211 38.596 201.401 37.7723 201.144L37.5445 201.954C38.1125 202.167 38.3963 202.661 38.3959 203.318C38.3953 204.302 37.7592 204.98 36.5908 205.018L36.5933 201.058L36.2382 201.058C34.207 201.057 33.5102 202.264 33.5095 203.4C33.5085 204.877 34.6727 205.858 36.3488 205.859C38.025 205.86 39.1477 204.895 39.1487 203.319ZM35.8664 205.017C35.0177 204.96 34.2617 204.359 34.2623 203.401C34.2629 202.492 34.9451 201.91 35.8684 201.91L35.8664 205.017ZM35.7566 198.945C34.8049 198.944 34.2655 198.355 34.266 197.552C34.2665 196.774 34.7746 196.302 35.6304 196.303L39.0395 196.305L39.04 195.467L35.5741 195.465C34.1821 195.464 33.514 196.206 33.5133 197.31C33.5128 198.134 33.8818 198.645 34.4356 198.902L34.4355 198.973L33.5833 198.972L33.5828 199.782L39.0373 199.785L39.0378 198.947L35.7566 198.945ZM33.5879 191.56L33.5872 192.725L32.2804 192.724L32.2799 193.562L33.5867 193.563L33.5862 194.387L34.2964 194.387L34.2969 193.563L37.706 193.565C38.6577 193.566 39.1127 192.799 39.1132 192.089C39.1134 191.776 39.0567 191.578 39.0141 191.464L38.2612 191.634C38.2753 191.705 38.3037 191.819 38.3036 192.003C38.3033 192.373 38.1895 192.728 37.4792 192.727L34.2974 192.725L34.2982 191.56L33.5879 191.56ZM34.0488 181.521C32.5571 181.79 31.6757 182.983 31.6748 184.446C31.6736 186.307 33.1074 187.657 35.4086 187.658C37.7097 187.66 39.1452 186.311 39.1464 184.45C39.1473 182.987 38.2674 181.794 36.7761 181.523L36.7755 182.404C37.7839 182.617 38.3231 183.484 38.3225 184.45C38.3217 185.771 37.2983 186.807 35.4091 186.806C33.5199 186.805 32.4978 185.767 32.4987 184.446C32.4993 183.48 33.0396 182.614 34.0482 182.402L34.0488 181.521ZM39.1646 177.999C39.1656 176.522 38.044 175.527 36.3537 175.526C34.6492 175.525 33.5264 176.518 33.5254 177.995C33.5245 179.473 34.646 180.468 36.3506 180.469C38.0409 180.47 39.1637 179.476 39.1646 177.999ZM38.4118 177.998C38.4111 179.121 37.4449 179.631 36.3511 179.631C35.2574 179.63 34.2776 179.118 34.2783 177.996C34.279 176.874 35.2594 176.363 36.3532 176.364C37.4469 176.364 38.4125 176.876 38.4118 177.998ZM35.7726 173.408C34.8209 173.407 34.2815 172.817 34.282 172.015C34.2825 171.237 34.7906 170.765 35.6465 170.766L39.0556 170.768L39.0561 169.93L35.5902 169.928C34.1981 169.927 33.5301 170.669 33.5294 171.773C33.5288 172.597 33.8978 173.108 34.4517 173.364L34.4516 173.435L33.5993 173.435L33.5988 174.245L39.0534 174.248L39.0539 173.41L35.7726 173.408ZM34.8265 164.532C34.0522 164.794 33.5334 165.384 33.5327 166.463C33.532 167.614 34.1848 168.466 35.1081 168.467C35.861 168.467 36.3655 168.02 36.6005 167.019L36.8142 166.11C36.9424 165.56 37.2053 165.301 37.5817 165.301C38.0505 165.301 38.4337 165.799 38.4332 166.58C38.4328 167.265 38.1377 167.695 37.5517 167.843L37.7501 168.639C38.677 168.444 39.1711 167.681 39.1718 166.566C39.1726 165.298 38.4807 164.435 37.5397 164.434C36.7797 164.434 36.3 164.909 36.0615 165.882L35.8621 166.692C35.7019 167.338 35.4851 167.629 35.0661 167.629C34.5973 167.629 34.2567 167.131 34.2571 166.464C34.2576 165.732 34.6626 165.43 35.0391 165.285L34.8265 164.532ZM36.8324 159.735C37.8551 159.736 38.3234 160.517 38.323 161.142C38.3225 161.838 37.8109 162.335 37.0154 162.334L33.6063 162.332L33.6058 163.17L37.0717 163.173C38.4637 163.173 39.1318 162.435 39.1325 161.412C39.133 160.589 38.693 160.049 38.1392 159.793L38.1392 159.736L39.0625 159.736L39.063 158.898L33.6085 158.895L33.608 159.733L36.8324 159.735ZM31.7918 156.521L31.7913 157.359L39.064 157.363L39.0645 156.525L31.7918 156.521ZM33.6124 152.615L33.6117 153.779L32.3049 153.779L32.3044 154.617L33.6112 154.617L33.6107 155.441L34.3209 155.442L34.3214 154.618L37.7305 154.62C38.6822 154.621 39.1372 153.854 39.1377 153.144C39.1379 152.831 39.0812 152.632 39.0386 152.519L38.2857 152.689C38.2998 152.76 38.3282 152.873 38.3281 153.058C38.3278 153.427 38.214 153.782 37.5037 153.782L34.3219 153.78L34.3227 152.615L33.6124 152.615ZM39.1828 149.129C39.1835 148.021 38.63 147.211 37.8063 146.955L37.5785 147.764C38.1466 147.978 38.4304 148.472 38.43 149.129C38.4293 150.112 37.7933 150.79 36.6249 150.828L36.6274 146.869L36.2723 146.869C34.241 146.867 33.5443 148.074 33.5435 149.211C33.5426 150.688 34.7068 151.669 36.3829 151.67C38.059 151.671 39.1818 150.706 39.1828 149.129ZM35.9005 150.828C35.0518 150.771 34.2958 150.17 34.2964 149.211C34.297 148.302 34.9791 147.72 35.9024 147.721L35.9005 150.828ZM39.1863 143.536C39.187 142.485 38.5338 142.129 38.2356 141.945L38.2357 141.845L39.0737 141.846L39.0743 141.036L31.8015 141.031L31.801 141.869L34.4857 141.871L34.4856 141.942C34.2014 142.127 33.5478 142.453 33.5471 143.518C33.5463 144.896 34.6394 145.849 36.3582 145.85C38.0911 145.851 39.1855 144.9 39.1863 143.536ZM38.4336 143.422C38.4329 144.473 37.5093 145.012 36.3445 145.012C35.1939 145.011 34.2994 144.485 34.3 143.419C34.3007 142.397 35.1249 141.857 36.3465 141.858C37.5823 141.859 38.4342 142.413 38.4336 143.422Z" fill="#203765" fill-opacity="0.4"/>
<defs>
<clipPath id="clip0_7745_1248">
<rect width="18" height="18" fill="white" transform="translate(802 27)"/>
</clipPath>
<clipPath id="clip1_7745_1248">
<rect width="749.667" height="25" fill="white" transform="translate(68.166 264)"/>
</clipPath>
</defs>
</svg>
