<svg width="22" height="28" viewBox="0 0 22 28" fill="none" xmlns="http://www.w3.org/2000/svg">
<g clip-path="url(#clip0_7745_1446)">
<path d="M11.7754 1.88867C10.9206 1.88867 10.0675 2.63571 10.0675 3.74377V4.54726C9.41343 4.78119 4.94889 6.46197 4.37159 11.0803C4.3687 11.104 4.36729 11.1279 4.36739 11.1518V19.4643L2.25561 21.5761C2.17651 21.6557 2.12264 21.7569 2.10078 21.8669C2.07891 21.9769 2.09 22.091 2.13268 22.1948C2.17535 22.2985 2.2477 22.3874 2.34066 22.4502C2.43363 22.513 2.54306 22.547 2.65525 22.5479H20.8914C21.004 22.5478 21.114 22.5144 21.2076 22.4519C21.3012 22.3894 21.3742 22.3006 21.4174 22.1967C21.4606 22.0927 21.472 21.9783 21.4503 21.8679C21.4286 21.7575 21.3746 21.6559 21.2953 21.5761L19.1835 19.4643V11.1518C19.1836 11.1279 19.1821 11.104 19.1792 11.0803C18.6019 6.46197 14.1373 4.78119 13.4833 4.54726V3.74377C13.4833 2.63571 12.6301 1.88867 11.7753 1.88867H11.7754Z" fill="#5F88D2"/>
<path d="M10.0663 23.1201C9.75143 23.1189 9.49526 23.3732 9.49414 23.688C9.49414 24.9402 10.522 25.968 11.7742 25.968C13.0264 25.968 14.0542 24.9402 14.0542 23.688C14.0531 23.3732 13.7969 23.1189 13.4821 23.1201H10.0663Z" fill="#B3D2F8"/>
<path d="M16.5531 3.54852C16.4546 3.54374 16.3566 3.56459 16.2685 3.60906C16.1805 3.65353 16.1055 3.72004 16.0509 3.80218C16.0092 3.86466 15.9803 3.9348 15.9658 4.0085C15.9513 4.08221 15.9515 4.15804 15.9664 4.23166C15.9813 4.30528 16.0107 4.37521 16.0527 4.43746C16.0948 4.4997 16.1487 4.55303 16.2114 4.59436C17.6953 5.58153 19.3625 7.17228 20.0583 9.5959C20.1005 9.74057 20.1983 9.86262 20.3302 9.93539C20.4622 10.0082 20.6176 10.0257 20.7625 9.98417C20.8346 9.96383 20.902 9.92948 20.9608 9.88307C21.0196 9.83666 21.0687 9.77908 21.1052 9.71369C21.1418 9.64829 21.1651 9.57631 21.1738 9.5019C21.1825 9.42749 21.1764 9.35213 21.156 9.28006C20.3635 6.51976 18.4702 4.72929 16.8431 3.64686C16.7572 3.58821 16.657 3.5542 16.5531 3.54846V3.54852Z" fill="#B3D2F8"/>
<path d="M6.98525 3.53797C6.89264 3.54745 6.80375 3.57948 6.72638 3.63125C5.09262 4.71323 3.1876 6.51318 2.39277 9.29028C2.3723 9.36236 2.36625 9.43777 2.37495 9.51219C2.38366 9.5866 2.40695 9.65857 2.4435 9.72397C2.48005 9.78938 2.52913 9.84695 2.58795 9.89336C2.64677 9.93977 2.71416 9.97411 2.78627 9.99445C2.85834 10.0149 2.93374 10.021 3.00815 10.0123C3.08257 10.0036 3.15454 9.98026 3.21994 9.94371C3.28534 9.90716 3.3429 9.85805 3.38931 9.79923C3.43572 9.74042 3.47007 9.67303 3.49041 9.60092C4.18831 7.16249 5.86786 5.57076 7.35804 4.58387C7.42076 4.54255 7.4747 4.48929 7.51674 4.42704C7.55878 4.36479 7.58811 4.29479 7.60302 4.22117C7.61794 4.14755 7.61816 4.07172 7.60366 3.99802C7.58916 3.92432 7.56023 3.85424 7.51854 3.79176C7.4613 3.70479 7.38134 3.63515 7.28732 3.59043C7.19331 3.5457 7.08884 3.52758 6.98525 3.53804L6.98525 3.53797Z" fill="#B3D2F8"/>
</g>
<defs>
<clipPath id="clip0_7745_1446">
<rect width="21.5385" height="28" fill="white"/>
</clipPath>
</defs>
</svg>
