<svg width="407" height="563" viewBox="0 0 407 563" fill="none" xmlns="http://www.w3.org/2000/svg">
<rect width="407" height="563" rx="6" fill="white"/>
<rect x="0.5" y="0.5" width="406" height="562" rx="5.5" stroke="#29375F" stroke-opacity="0.2"/>
<rect x="15" y="419" width="376" height="40" fill="#FC6964" fill-opacity="0.08"/>
<path d="M42.8864 443.119C44.7102 443.136 45.9205 441.824 45.9162 440.149C45.9205 438.479 44.706 437.281 43.1932 437.281C42.2727 437.281 41.4759 437.724 41.0284 438.462H40.9645C40.9688 436.48 41.7188 435.304 42.9972 435.304C43.8366 435.304 44.3651 435.815 44.544 436.54H45.8438C45.6435 435.159 44.5568 434.153 42.9972 434.153C40.9688 434.153 39.7031 435.896 39.7031 438.93C39.6989 442.143 41.3352 443.107 42.8864 443.119ZM42.8821 442.011C41.8679 442.011 41.1264 441.159 41.1264 440.179C41.1307 439.203 41.9062 438.351 42.9119 438.351C43.9091 438.351 44.642 439.156 44.6378 440.166C44.642 441.197 43.8793 442.011 42.8821 442.011ZM48.3249 437.545C48.7894 437.545 49.1772 437.166 49.1772 436.693C49.1772 436.229 48.7894 435.845 48.3249 435.845C47.8562 435.845 47.4727 436.229 47.4727 436.693C47.4727 437.166 47.8562 437.545 48.3249 437.545ZM48.3249 441.918C48.7894 441.918 49.1772 441.538 49.1772 441.065C49.1772 440.601 48.7894 440.217 48.3249 440.217C47.8562 440.217 47.4727 440.601 47.4727 441.065C47.4727 441.538 47.8562 441.918 48.3249 441.918ZM53.9052 443.119C55.6864 443.119 56.9947 442.054 56.9904 440.605C56.9947 439.501 56.3256 438.709 55.1665 438.53V438.462C56.0785 438.227 56.6708 437.511 56.6665 436.531C56.6708 435.249 55.6183 434.153 53.9393 434.153C52.337 434.153 51.0501 435.121 51.0075 436.54H52.2816C52.3114 435.739 53.0657 435.253 53.9222 435.253C54.8129 435.253 55.3967 435.794 55.3924 436.599C55.3967 437.443 54.7191 437.997 53.7518 437.997H53.0146V439.071H53.7518C54.962 439.071 55.6609 439.685 55.6609 440.562C55.6609 441.411 54.9237 441.986 53.8967 441.986C52.9506 441.986 52.2134 441.5 52.1623 440.724H50.8242C50.8796 442.148 52.141 443.119 53.9052 443.119ZM61.6396 443.145C63.6552 443.145 64.8356 441.5 64.8356 438.641C64.8356 435.803 63.6381 434.153 61.6396 434.153C59.6367 434.153 58.4435 435.798 58.4393 438.641C58.4393 441.496 59.6197 443.141 61.6396 443.145ZM61.6396 442.007C60.4592 442.007 59.7475 440.822 59.7475 438.641C59.7518 436.467 60.4634 435.27 61.6396 435.27C62.8114 435.27 63.5273 436.467 63.5273 438.641C63.5273 440.822 62.8157 442.007 61.6396 442.007ZM69.6424 443H70.9592V439.932H72.7489C74.7731 439.932 75.7745 438.709 75.7745 437.098C75.7745 435.491 74.7816 434.273 72.7532 434.273H69.6424V443ZM70.9592 438.815V435.402H72.6126C73.9165 435.402 74.4492 436.109 74.4492 437.098C74.4492 438.087 73.9165 438.815 72.6296 438.815H70.9592ZM77.3182 434.273V443H78.571V436.68H78.652L81.2259 442.987H82.2656L84.8395 436.685H84.9205V443H86.1733V434.273H84.5753L81.7969 441.057H81.6946L78.9162 434.273H77.3182ZM95.0178 438.087H91.1484V439.19H95.0178V438.087ZM102.777 434.153C100.944 434.136 99.7468 435.453 99.7468 437.107C99.7511 438.773 100.957 439.974 102.47 439.974C103.395 439.974 104.187 439.523 104.635 438.79H104.703C104.699 440.797 103.944 441.969 102.666 441.969C101.831 441.969 101.294 441.457 101.123 440.712H99.8235C100.015 442.122 101.106 443.119 102.666 443.119C104.694 443.119 105.964 441.376 105.964 438.321C105.96 435.134 104.332 434.166 102.777 434.153ZM102.781 435.261C103.791 435.261 104.537 436.118 104.537 437.077C104.541 438.048 103.752 438.901 102.755 438.901C101.754 438.901 101.029 438.099 101.025 437.089C101.025 436.075 101.779 435.261 102.781 435.261ZM108.36 437.545C108.825 437.545 109.212 437.166 109.212 436.693C109.212 436.229 108.825 435.845 108.36 435.845C107.891 435.845 107.508 436.229 107.508 436.693C107.508 437.166 107.891 437.545 108.36 437.545ZM108.36 441.918C108.825 441.918 109.212 441.538 109.212 441.065C109.212 440.601 108.825 440.217 108.36 440.217C107.891 440.217 107.508 440.601 107.508 441.065C107.508 441.538 107.891 441.918 108.36 441.918ZM113.94 443.145C115.956 443.145 117.136 441.5 117.136 438.641C117.136 435.803 115.939 434.153 113.94 434.153C111.938 434.153 110.744 435.798 110.74 438.641C110.74 441.496 111.92 443.141 113.94 443.145ZM113.94 442.007C112.76 442.007 112.048 440.822 112.048 438.641C112.053 436.467 112.764 435.27 113.94 435.27C115.112 435.27 115.828 436.467 115.828 438.641C115.828 440.822 115.116 442.007 113.94 442.007ZM121.686 443.145C123.702 443.145 124.882 441.5 124.882 438.641C124.882 435.803 123.685 434.153 121.686 434.153C119.684 434.153 118.49 435.798 118.486 438.641C118.486 441.496 119.667 443.141 121.686 443.145ZM121.686 442.007C120.506 442.007 119.794 440.822 119.794 438.641C119.799 436.467 120.51 435.27 121.686 435.27C122.858 435.27 123.574 436.467 123.574 438.641C123.574 440.822 122.863 442.007 121.686 442.007ZM129.689 443H131.006V439.932H132.796C134.82 439.932 135.821 438.709 135.821 437.098C135.821 435.491 134.828 434.273 132.8 434.273H129.689V443ZM131.006 438.815V435.402H132.659C133.963 435.402 134.496 436.109 134.496 437.098C134.496 438.087 133.963 438.815 132.676 438.815H131.006ZM137.365 434.273V443H138.618V436.68H138.699L141.273 442.987H142.312L144.886 436.685H144.967V443H146.22V434.273H144.622L141.844 441.057H141.741L138.963 434.273H137.365ZM156.706 440.511C157.742 440.511 158.581 439.672 158.581 438.636C158.581 437.601 157.742 436.761 156.706 436.761C155.671 436.761 154.831 437.601 154.831 438.636C154.831 439.672 155.671 440.511 156.706 440.511ZM167.07 443H172.814V441.871H168.885V441.807L170.62 439.991C172.218 438.376 172.674 437.605 172.674 436.629C172.674 435.227 171.532 434.153 169.887 434.153C168.255 434.153 167.061 435.21 167.061 436.804H168.319C168.314 435.866 168.919 435.253 169.861 435.253C170.748 435.253 171.421 435.798 171.421 436.668C171.421 437.439 170.961 437.993 170.023 438.986L167.07 442.045V443ZM178.896 439.114C178.896 438.07 179.557 437.473 180.464 437.473C181.342 437.473 181.866 438.031 181.866 438.99V443H183.141V438.837C183.141 437.205 182.246 436.369 180.899 436.369C179.881 436.369 179.267 436.812 178.96 437.52H178.879V434.273H177.622V443H178.896V439.114ZM187.598 443.132C189.443 443.132 190.649 441.781 190.649 439.757C190.649 437.72 189.443 436.369 187.598 436.369C185.753 436.369 184.547 437.72 184.547 439.757C184.547 441.781 185.753 443.132 187.598 443.132ZM187.602 442.062C186.396 442.062 185.834 441.01 185.834 439.753C185.834 438.5 186.396 437.435 187.602 437.435C188.8 437.435 189.362 438.5 189.362 439.753C189.362 441.01 188.8 442.062 187.602 442.062ZM196.218 440.286C196.222 441.398 195.395 441.926 194.679 441.926C193.891 441.926 193.346 441.355 193.346 440.464V436.455H192.071V440.618C192.071 442.241 192.962 443.085 194.219 443.085C195.203 443.085 195.873 442.565 196.175 441.866H196.243V443H197.496V436.455H196.218V440.286ZM199.208 443H200.482V439.003C200.482 438.146 201.143 437.528 202.046 437.528C202.31 437.528 202.609 437.575 202.711 437.605V436.386C202.583 436.369 202.332 436.357 202.17 436.357C201.403 436.357 200.746 436.791 200.508 437.494H200.44V436.455H199.208V443ZM208.718 438.053C208.454 437.034 207.657 436.369 206.243 436.369C204.764 436.369 203.716 437.149 203.716 438.308C203.716 439.237 204.278 439.855 205.505 440.128L206.613 440.371C207.244 440.511 207.538 440.793 207.538 441.202C207.538 441.709 206.997 442.105 206.162 442.105C205.399 442.105 204.909 441.777 204.755 441.134L203.524 441.321C203.737 442.48 204.7 443.132 206.17 443.132C207.751 443.132 208.846 442.293 208.846 441.108C208.846 440.183 208.258 439.612 207.056 439.335L206.017 439.097C205.297 438.926 204.985 438.683 204.99 438.24C204.985 437.737 205.531 437.379 206.255 437.379C207.048 437.379 207.414 437.818 207.564 438.257L208.718 438.053ZM216.444 443.119C218.225 443.119 219.534 442.054 219.529 440.605C219.534 439.501 218.865 438.709 217.706 438.53V438.462C218.618 438.227 219.21 437.511 219.206 436.531C219.21 435.249 218.157 434.153 216.478 434.153C214.876 434.153 213.589 435.121 213.547 436.54H214.821C214.85 435.739 215.605 435.253 216.461 435.253C217.352 435.253 217.936 435.794 217.931 436.599C217.936 437.443 217.258 437.997 216.291 437.997H215.554V439.071H216.291C217.501 439.071 218.2 439.685 218.2 440.562C218.2 441.411 217.463 441.986 216.436 441.986C215.49 441.986 214.752 441.5 214.701 440.724H213.363C213.419 442.148 214.68 443.119 216.444 443.119ZM224.179 443.145C226.194 443.145 227.375 441.5 227.375 438.641C227.375 435.803 226.177 434.153 224.179 434.153C222.176 434.153 220.983 435.798 220.978 438.641C220.978 441.496 222.159 443.141 224.179 443.145ZM224.179 442.007C222.998 442.007 222.287 440.822 222.287 438.641C222.291 436.467 223.002 435.27 224.179 435.27C225.35 435.27 226.066 436.467 226.066 438.641C226.066 440.822 225.355 442.007 224.179 442.007ZM232.079 443H233.353V438.964C233.353 438.082 233.971 437.469 234.696 437.469C235.403 437.469 235.893 437.938 235.893 438.649V443H237.163V438.828C237.163 438.04 237.645 437.469 238.475 437.469C239.149 437.469 239.703 437.844 239.703 438.73V443H240.977V438.611C240.977 437.115 240.142 436.369 238.957 436.369C238.015 436.369 237.308 436.821 236.993 437.52H236.924C236.639 436.804 236.038 436.369 235.164 436.369C234.299 436.369 233.656 436.8 233.383 437.52H233.302V436.455H232.079V443ZM242.685 443H243.959V436.455H242.685V443ZM243.328 435.445C243.767 435.445 244.134 435.104 244.134 434.686C244.134 434.268 243.767 433.923 243.328 433.923C242.885 433.923 242.523 434.268 242.523 434.686C242.523 435.104 242.885 435.445 243.328 435.445ZM246.947 439.114C246.947 438.07 247.586 437.473 248.473 437.473C249.338 437.473 249.862 438.04 249.862 438.99V443H251.136V438.837C251.136 437.217 250.245 436.369 248.907 436.369C247.923 436.369 247.279 436.825 246.977 437.52H246.896V436.455H245.673V443H246.947V439.114ZM256.991 440.286C256.995 441.398 256.169 441.926 255.453 441.926C254.664 441.926 254.119 441.355 254.119 440.464V436.455H252.845V440.618C252.845 442.241 253.735 443.085 254.993 443.085C255.977 443.085 256.646 442.565 256.949 441.866H257.017V443H258.27V436.455H256.991V440.286ZM263.037 436.455H261.695V434.886H260.42V436.455H259.462V437.477H260.42V441.342C260.416 442.531 261.324 443.107 262.33 443.085C262.734 443.081 263.007 443.004 263.156 442.949L262.926 441.896C262.841 441.913 262.683 441.952 262.479 441.952C262.065 441.952 261.695 441.815 261.695 441.078V437.477H263.037V436.455ZM267.197 443.132C268.625 443.132 269.635 442.429 269.924 441.364L268.718 441.146C268.488 441.764 267.934 442.08 267.21 442.08C266.119 442.08 265.386 441.372 265.352 440.111H270.005V439.659C270.005 437.294 268.591 436.369 267.108 436.369C265.284 436.369 264.082 437.759 264.082 439.77C264.082 441.803 265.267 443.132 267.197 443.132ZM265.356 439.156C265.407 438.227 266.081 437.422 267.116 437.422C268.105 437.422 268.752 438.155 268.757 439.156H265.356ZM276.324 438.053C276.06 437.034 275.263 436.369 273.848 436.369C272.369 436.369 271.321 437.149 271.321 438.308C271.321 439.237 271.884 439.855 273.111 440.128L274.219 440.371C274.849 440.511 275.143 440.793 275.143 441.202C275.143 441.709 274.602 442.105 273.767 442.105C273.004 442.105 272.514 441.777 272.361 441.134L271.129 441.321C271.342 442.48 272.305 443.132 273.776 443.132C275.357 443.132 276.452 442.293 276.452 441.108C276.452 440.183 275.864 439.612 274.662 439.335L273.622 439.097C272.902 438.926 272.591 438.683 272.595 438.24C272.591 437.737 273.136 437.379 273.861 437.379C274.653 437.379 275.02 437.818 275.169 438.257L276.324 438.053Z" fill="#FC6964"/>
<path d="M341.4 443H344.745C346.774 443 347.69 441.99 347.69 440.652C347.69 439.301 346.744 438.538 345.879 438.491V438.406C346.68 438.202 347.349 437.656 347.349 436.565C347.349 435.274 346.454 434.273 344.596 434.273H341.4V443ZM342.717 441.871V439.075H344.664C345.721 439.075 346.382 439.757 346.382 440.588C346.382 441.321 345.883 441.871 344.618 441.871H342.717ZM342.717 438.048V435.393H344.515C345.559 435.393 346.058 435.943 346.058 436.668C346.058 437.511 345.368 438.048 344.481 438.048H342.717ZM350.424 434.273H349.15V443H350.424V434.273ZM354.895 443.132C356.74 443.132 357.946 441.781 357.946 439.757C357.946 437.72 356.74 436.369 354.895 436.369C353.05 436.369 351.844 437.72 351.844 439.757C351.844 441.781 353.05 443.132 354.895 443.132ZM354.899 442.062C353.693 442.062 353.131 441.01 353.131 439.753C353.131 438.5 353.693 437.435 354.899 437.435C356.097 437.435 356.659 438.5 356.659 439.753C356.659 441.01 356.097 442.062 354.899 442.062ZM362.125 443.132C363.672 443.132 364.674 442.203 364.814 440.929H363.574C363.412 441.636 362.863 442.054 362.134 442.054C361.056 442.054 360.361 441.155 360.361 439.727C360.361 438.325 361.069 437.443 362.134 437.443C362.944 437.443 363.438 437.955 363.574 438.568H364.814C364.678 437.247 363.6 436.369 362.113 436.369C360.267 436.369 359.074 437.759 359.074 439.757C359.074 441.73 360.225 443.132 362.125 443.132ZM366.177 443H367.451V440.678L368.086 440.043L370.31 443H371.874L369.045 439.263L371.695 436.455H370.17L367.562 439.224H367.451V434.273H366.177V443Z" fill="#FC6964"/>
<path d="M324 431C319.589 431 316 434.589 316 439C316 443.411 319.589 447 324 447C328.411 447 332 443.411 332 439C332 434.589 328.411 431 324 431ZM317.6 439C317.6 437.523 318.107 436.166 318.95 435.082L327.918 444.05C326.799 444.925 325.42 445.4 324 445.4C320.471 445.4 317.6 442.529 317.6 439ZM329.05 442.918L320.082 433.95C321.201 433.075 322.58 432.6 324 432.6C327.529 432.6 330.4 435.471 330.4 439C330.4 440.42 329.924 441.799 329.05 442.918Z" fill="#FC6964"/>
<rect x="23" y="512" width="361" height="1" fill="#364469" fill-opacity="0.1"/>
<path d="M26.0085 532.818H24.348L28.0121 543H29.7869L33.451 532.818H31.7905L28.9567 541.111H28.8423L26.0085 532.818ZM34.802 543H36.2885V535.364H34.802V543ZM35.5527 534.185C36.0648 534.185 36.4924 533.788 36.4924 533.3C36.4924 532.813 36.0648 532.411 35.5527 532.411C35.0357 532.411 34.6131 532.813 34.6131 533.3C34.6131 533.788 35.0357 534.185 35.5527 534.185ZM41.5795 543.154C43.245 543.154 44.4233 542.334 44.7614 541.091L43.3544 540.837C43.0859 541.558 42.4396 541.926 41.5945 541.926C40.3217 541.926 39.4666 541.101 39.4268 539.629H44.8558V539.102C44.8558 536.343 43.2053 535.264 41.4751 535.264C39.3473 535.264 37.9453 536.885 37.9453 539.232C37.9453 541.603 39.3274 543.154 41.5795 543.154ZM39.4318 538.516C39.4915 537.432 40.277 536.492 41.4851 536.492C42.6385 536.492 43.3942 537.347 43.3991 538.516H39.4318ZM48.147 543H49.6584L51.2095 537.487H51.3239L52.875 543H54.3913L56.6335 535.364H55.0973L53.6108 540.947H53.5362L52.0447 535.364H50.5085L49.0071 540.972H48.9325L47.4361 535.364H45.8999L48.147 543ZM63.9716 543.169C65.2344 543.169 65.9453 542.528 66.2287 541.956H66.2884V543H67.7401V537.929C67.7401 535.707 65.9901 535.264 64.777 535.264C63.3949 535.264 62.1222 535.821 61.625 537.213L63.022 537.531C63.2408 536.989 63.7976 536.467 64.7969 536.467C65.7564 536.467 66.2486 536.969 66.2486 537.835V537.869C66.2486 538.411 65.6918 538.401 64.3196 538.56C62.8729 538.729 61.3913 539.107 61.3913 540.842C61.3913 542.344 62.5199 543.169 63.9716 543.169ZM64.2947 541.976C63.4545 541.976 62.848 541.598 62.848 540.862C62.848 540.067 63.554 539.783 64.4141 539.669C64.8963 539.604 66.0398 539.475 66.2536 539.261V540.246C66.2536 541.151 65.5327 541.976 64.2947 541.976ZM71.2065 532.818H69.72V543H71.2065V532.818ZM74.6928 532.818H73.2063V543H74.6928V532.818ZM86.0703 535.493H87.5518C87.5071 533.862 86.0653 532.679 83.9972 532.679C81.9538 532.679 80.3878 533.847 80.3878 535.602C80.3878 537.019 81.402 537.849 83.0376 538.292L84.2408 538.62C85.3295 538.908 86.1697 539.266 86.1697 540.171C86.1697 541.165 85.2202 541.822 83.9126 541.822C82.7294 541.822 81.745 541.295 81.6555 540.186H80.1143C80.2138 542.031 81.6406 543.169 83.9226 543.169C86.3139 543.169 87.6911 541.911 87.6911 540.186C87.6911 538.352 86.0554 537.641 84.7628 537.322L83.7685 537.064C82.973 536.86 81.9141 536.487 81.919 535.513C81.919 534.648 82.7095 534.006 83.9624 534.006C85.1307 534.006 85.9609 534.553 86.0703 535.493ZM92.6241 543.154C94.4288 543.154 95.5971 542.07 95.7612 540.584H94.3145C94.1255 541.409 93.4842 541.896 92.6341 541.896C91.3762 541.896 90.5659 540.847 90.5659 539.182C90.5659 537.546 91.3912 536.517 92.6341 536.517C93.5787 536.517 94.1554 537.114 94.3145 537.83H95.7612C95.6021 536.288 94.3443 535.264 92.6092 535.264C90.4565 535.264 89.0645 536.885 89.0645 539.217C89.0645 541.518 90.4068 543.154 92.6241 543.154ZM98.8374 538.466C98.8374 537.248 99.608 536.552 100.667 536.552C101.691 536.552 102.303 537.203 102.303 538.322V543H103.789V538.143C103.789 536.239 102.745 535.264 101.174 535.264C99.9858 535.264 99.2699 535.781 98.9119 536.607H98.8175V532.818H97.3509V543H98.8374V538.466ZM109.064 543.154C110.729 543.154 111.908 542.334 112.246 541.091L110.839 540.837C110.57 541.558 109.924 541.926 109.079 541.926C107.806 541.926 106.951 541.101 106.911 539.629H112.34V539.102C112.34 536.343 110.69 535.264 108.96 535.264C106.832 535.264 105.43 536.885 105.43 539.232C105.43 541.603 106.812 543.154 109.064 543.154ZM106.916 538.516C106.976 537.432 107.761 536.492 108.969 536.492C110.123 536.492 110.879 537.347 110.884 538.516H106.916ZM116.848 543.149C118.24 543.149 118.787 542.299 119.056 541.812H119.18V543H120.632V532.818H119.145V536.602H119.056C118.787 536.129 118.28 535.264 116.858 535.264C115.014 535.264 113.656 536.721 113.656 539.197C113.656 541.668 114.994 543.149 116.848 543.149ZM117.176 541.881C115.849 541.881 115.158 540.713 115.158 539.182C115.158 537.665 115.834 536.527 117.176 536.527C118.474 536.527 119.17 537.586 119.17 539.182C119.17 540.788 118.459 541.881 117.176 541.881ZM127.591 539.833C127.596 541.131 126.631 541.747 125.796 541.747C124.876 541.747 124.24 541.081 124.24 540.042V535.364H122.753V540.221C122.753 542.115 123.792 543.099 125.259 543.099C126.407 543.099 127.188 542.493 127.541 541.678H127.62V543H129.082V535.364H127.591V539.833ZM132.566 532.818H131.079V543H132.566V532.818ZM137.857 543.154C139.522 543.154 140.701 542.334 141.039 541.091L139.632 540.837C139.363 541.558 138.717 541.926 137.872 541.926C136.599 541.926 135.744 541.101 135.704 539.629H141.133V539.102C141.133 536.343 139.483 535.264 137.752 535.264C135.625 535.264 134.223 536.885 134.223 539.232C134.223 541.603 135.605 543.154 137.857 543.154ZM135.709 538.516C135.769 537.432 136.554 536.492 137.762 536.492C138.916 536.492 139.672 537.347 139.676 538.516H135.709Z" fill="#FC6964"/>
<path d="M153.125 539.57H163.357" stroke="#FC6964" stroke-width="1.5" stroke-linecap="round" stroke-linejoin="round"/>
<path d="M159.234 535.195L164.208 539.57L159.234 543.945" stroke="#FC6964" stroke-width="1.5" stroke-linecap="round" stroke-linejoin="round"/>
<g clip-path="url(#clip0_7745_1548)">
<path fill-rule="evenodd" clip-rule="evenodd" d="M372 45C367.029 45 363 40.9706 363 36C363 31.0294 367.029 27 372 27C376.971 27 381 31.0294 381 36C381 40.9706 376.971 45 372 45ZM370.968 38.2112H372.853C372.862 37.8772 372.908 37.6014 372.991 37.3839C373.075 37.1664 373.224 36.9543 373.44 36.7478L374.198 36.0425C374.518 35.7305 374.751 35.425 374.896 35.1262C375.041 34.8274 375.114 34.4956 375.114 34.1309C375.114 33.2959 374.845 32.6521 374.306 32.1995C373.768 31.7468 373.009 31.5205 372.029 31.5205C371.044 31.5205 370.28 31.7655 369.735 32.2555C369.19 32.7455 368.913 33.4299 368.904 34.3088H371.132C371.141 33.9792 371.227 33.7178 371.389 33.5244C371.552 33.3311 371.765 33.2344 372.029 33.2344C372.6 33.2344 372.886 33.5662 372.886 34.2297C372.886 34.5022 372.801 34.7516 372.632 34.9779C372.463 35.2042 372.216 35.4536 371.89 35.7261C371.565 35.9985 371.33 36.3204 371.185 36.6918C371.04 37.0631 370.968 37.5696 370.968 38.2112ZM370.697 40.2151C370.697 40.5403 370.815 40.8073 371.05 41.016C371.285 41.2247 371.578 41.3291 371.93 41.3291C372.282 41.3291 372.575 41.2247 372.81 41.016C373.045 40.8073 373.163 40.5403 373.163 40.2151C373.163 39.8899 373.045 39.6229 372.81 39.4142C372.575 39.2054 372.282 39.1011 371.93 39.1011C371.578 39.1011 371.285 39.2054 371.05 39.4142C370.815 39.6229 370.697 39.8899 370.697 40.2151Z" fill="#29375F" fill-opacity="0.3"/>
</g>
<path d="M32.2393 33.674H34.892C34.8537 31.3409 32.9361 29.7301 30.0213 29.7301C27.1513 29.7301 25.0483 31.3153 25.0611 33.6932C25.0547 35.6236 26.4162 36.7294 28.6278 37.2599L30.0533 37.6179C31.4787 37.9631 32.2713 38.3722 32.2777 39.2543C32.2713 40.2131 31.3636 40.8651 29.9574 40.8651C28.5192 40.8651 27.4837 40.2003 27.3942 38.8899H24.7159C24.7862 41.7216 26.8125 43.1854 29.9893 43.1854C33.1854 43.1854 35.0646 41.6577 35.071 39.2607C35.0646 37.081 33.4219 35.924 31.1463 35.4126L29.9702 35.1314C28.8324 34.8693 27.88 34.4474 27.8991 33.5078C27.8991 32.6641 28.647 32.044 30.0021 32.044C31.3253 32.044 32.1371 32.6449 32.2393 33.674ZM49.5631 34.4922C49.1988 31.4688 46.9104 29.7301 43.8806 29.7301C40.4225 29.7301 37.7826 32.1719 37.7826 36.4545C37.7826 40.7244 40.3778 43.179 43.8806 43.179C47.2364 43.179 49.2627 40.9482 49.5631 38.5384L46.7634 38.5256C46.5013 39.9254 45.4019 40.7308 43.9253 40.7308C41.9374 40.7308 40.5887 39.2543 40.5887 36.4545C40.5887 33.7315 41.9182 32.1783 43.9445 32.1783C45.4594 32.1783 46.5525 33.054 46.7634 34.4922H49.5631ZM52.6279 43H55.3956V37.5923H61.0142V43H63.7756V29.9091H61.0142V35.3104H55.3956V29.9091H52.6279V43ZM67.1376 43H75.9841V40.718H69.9053V37.5923H75.5047V35.3104H69.9053V32.1911H75.9586V29.9091H67.1376V43ZM83.8797 43C87.8683 43 90.2845 40.5327 90.2845 36.4418C90.2845 32.3636 87.8683 29.9091 83.918 29.9091H79.239V43H83.8797ZM82.0068 40.6286V32.2805H83.771C86.2255 32.2805 87.5231 33.5334 87.5231 36.4418C87.5231 39.3629 86.2255 40.6286 83.7646 40.6286H82.0068ZM101.501 29.9091V38.174C101.501 39.6697 100.452 40.75 98.8416 40.75C97.2372 40.75 96.1825 39.6697 96.1825 38.174V29.9091H93.4147V38.4105C93.4147 41.2741 95.5753 43.1854 98.8416 43.1854C102.095 43.1854 104.268 41.2741 104.268 38.4105V29.9091H101.501ZM107.626 43H116.006V40.718H110.393V29.9091H107.626V43ZM118.918 43H127.765V40.718H121.686V37.5923H127.286V35.3104H121.686V32.1911H127.74V29.9091H118.918V43Z" fill="#29375F" fill-opacity="0.4"/>
<line x1="1" y1="79.5" x2="406" y2="79.5" stroke="#29375F" stroke-opacity="0.2"/>
<rect x="15" y="331" width="376" height="40" fill="#0A9410" fill-opacity="0.04"/>
<rect x="15" y="203" width="376" height="40" fill="#0A9410" fill-opacity="0.04"/>
<g clip-path="url(#clip1_7745_1548)">
<path d="M304.575 216.5L310.709 216.516L305.778 222.151L310.574 221.508L301.34 232.5L305.279 224.708L301.07 225.351L304.575 216.5Z" fill="#29375F" fill-opacity="0.7"/>
</g>
<path d="M321.196 229L322.221 226.116H326.337L327.361 229H328.654L324.915 218.818H323.642L319.904 229H321.196ZM322.608 225.023L324.239 220.429H324.319L325.949 225.023H322.608ZM331.254 224.406C331.254 223.074 332.079 222.318 333.203 222.318C334.292 222.318 334.953 223.029 334.953 224.227V229H336.126V224.148C336.126 222.199 335.087 221.264 333.541 221.264C332.388 221.264 331.672 221.781 331.314 222.557H331.214V221.364H330.081V229H331.254V224.406ZM338.752 231.864C339.811 231.864 340.557 231.302 341 230.114L344.251 221.384L342.968 221.364L340.86 227.449H340.781L338.673 221.364H337.4L340.224 229.04L340.005 229.636C339.578 230.8 339.051 230.909 338.196 230.69L337.897 231.724C338.017 231.784 338.355 231.864 338.752 231.864ZM349.124 221.364H347.494V219.534H346.32V221.364H345.167V222.358H346.32V227.131C346.32 228.463 347.394 229.099 348.389 229.099C348.826 229.099 349.104 229.02 349.264 228.96L349.025 227.906C348.926 227.926 348.766 227.966 348.508 227.966C347.991 227.966 347.494 227.807 347.494 226.812V222.358H349.124V221.364ZM350.889 229H352.063V221.364H350.889V229ZM351.486 220.091C351.943 220.091 352.321 219.733 352.321 219.295C352.321 218.858 351.943 218.5 351.486 218.5C351.028 218.5 350.651 218.858 350.651 219.295C350.651 219.733 351.028 220.091 351.486 220.091ZM354.212 229H355.385V224.227C355.385 223.109 356.2 222.318 357.115 222.318C358.005 222.318 358.626 222.9 358.626 223.77V229H359.82V224.028C359.82 223.044 360.436 222.318 361.51 222.318C362.345 222.318 363.061 222.761 363.061 223.889V229H364.234V223.889C364.234 222.094 363.27 221.264 361.908 221.264C360.814 221.264 360.013 221.766 359.621 222.557H359.541C359.163 221.741 358.497 221.264 357.493 221.264C356.498 221.264 355.763 221.741 355.445 222.557H355.345V221.364H354.212V229ZM369.581 229.159C371.132 229.159 372.266 228.384 372.624 227.23L371.49 226.912C371.192 227.707 370.501 228.105 369.581 228.105C368.204 228.105 367.255 227.215 367.2 225.58H372.743V225.082C372.743 222.239 371.053 221.264 369.462 221.264C367.394 221.264 366.022 222.895 366.022 225.241C366.022 227.588 367.374 229.159 369.581 229.159ZM367.2 224.565C367.279 223.377 368.12 222.318 369.462 222.318C370.735 222.318 371.55 223.273 371.55 224.565H367.2Z" fill="#29375F" fill-opacity="0.7"/>
<rect x="15" y="375" width="376" height="40" fill="#0A9410" fill-opacity="0.04"/>
<rect x="15" y="247" width="376" height="40" fill="#0A9410" fill-opacity="0.04"/>
<g clip-path="url(#clip2_7745_1548)">
<path d="M307.683 262.088H316.27C317.039 262.088 317.658 262.707 317.658 263.476V270.382C317.658 271.152 317.039 271.771 316.27 271.771H307.683C306.914 271.771 306.295 271.152 306.295 270.382V263.476C306.295 262.707 306.914 262.088 307.683 262.088Z" fill="#29375F" fill-opacity="0.7"/>
<path d="M321.619 263.112C321.525 263.116 321.433 263.149 321.351 263.21L318.617 265.245V268.614L321.351 270.649C321.438 270.714 321.537 270.748 321.637 270.748C321.737 270.748 321.836 270.714 321.922 270.649C322.009 270.584 322.081 270.491 322.131 270.38C322.182 270.268 322.208 270.141 322.208 270.011V263.848C322.208 263.749 322.193 263.652 322.163 263.561C322.133 263.47 322.089 263.388 322.034 263.319C321.979 263.251 321.914 263.197 321.843 263.162C321.772 263.126 321.696 263.109 321.619 263.112V263.112Z" fill="#29375F" fill-opacity="0.7"/>
</g>
<path d="M335.651 262.818H334.358L338.097 273H339.369L343.108 262.818H341.815L338.793 271.389H338.673L335.651 262.818ZM344.535 273H345.708V265.364H344.535V273ZM345.131 264.091C345.589 264.091 345.967 263.733 345.967 263.295C345.967 262.858 345.589 262.5 345.131 262.5C344.674 262.5 344.296 262.858 344.296 263.295C344.296 263.733 344.674 264.091 345.131 264.091ZM350.741 273.159C352.212 273.159 352.709 272.244 352.968 271.827H353.107V273H354.241V262.818H353.067V266.577H352.968C352.709 266.179 352.252 265.264 350.76 265.264C348.831 265.264 347.499 266.795 347.499 269.202C347.499 271.628 348.831 273.159 350.741 273.159ZM350.9 272.105C349.428 272.105 348.672 270.812 348.672 269.182C348.672 267.571 349.408 266.318 350.9 266.318C352.331 266.318 353.087 267.472 353.087 269.182C353.087 270.912 352.312 272.105 350.9 272.105ZM359.754 273.159C361.305 273.159 362.439 272.384 362.797 271.23L361.663 270.912C361.365 271.707 360.674 272.105 359.754 272.105C358.377 272.105 357.427 271.215 357.373 269.58H362.916V269.082C362.916 266.239 361.226 265.264 359.635 265.264C357.567 265.264 356.194 266.895 356.194 269.241C356.194 271.588 357.547 273.159 359.754 273.159ZM357.373 268.565C357.452 267.377 358.292 266.318 359.635 266.318C360.907 266.318 361.723 267.273 361.723 268.565H357.373ZM367.803 273.159C369.871 273.159 371.263 271.588 371.263 269.222C371.263 266.835 369.871 265.264 367.803 265.264C365.735 265.264 364.343 266.835 364.343 269.222C364.343 271.588 365.735 273.159 367.803 273.159ZM367.803 272.105C366.232 272.105 365.516 270.753 365.516 269.222C365.516 267.69 366.232 266.318 367.803 266.318C369.374 266.318 370.09 267.69 370.09 269.222C370.09 270.753 369.374 272.105 367.803 272.105Z" fill="#29375F" fill-opacity="0.7"/>
<path d="M298.035 349.919V354.288C298.035 354.375 297.997 354.458 297.931 354.519C297.864 354.58 297.773 354.615 297.679 354.615H296.387L295.984 358.778C295.979 358.858 295.939 358.933 295.875 358.988C295.81 359.042 295.725 359.072 295.638 359.07H292.397C292.31 359.072 292.225 359.042 292.16 358.988C292.096 358.933 292.056 358.858 292.051 358.778L291.648 354.615H290.356C290.261 354.615 290.171 354.58 290.104 354.519C290.037 354.458 290 354.375 290 354.288V349.919C290.001 349.419 290.219 348.939 290.605 348.585C290.991 348.231 291.514 348.032 292.06 348.03H295.975C296.521 348.032 297.044 348.231 297.43 348.585C297.816 348.939 298.033 349.419 298.035 349.919ZM294.017 347C294.449 347 294.871 346.883 295.23 346.663C295.589 346.443 295.868 346.131 296.033 345.766C296.199 345.4 296.242 344.998 296.158 344.61C296.073 344.222 295.866 343.866 295.56 343.586C295.255 343.306 294.866 343.116 294.443 343.038C294.02 342.961 293.581 343.001 293.182 343.152C292.784 343.304 292.443 343.56 292.203 343.889C291.963 344.218 291.835 344.605 291.835 345C291.836 345.53 292.066 346.039 292.475 346.414C292.884 346.789 293.439 347 294.017 347Z" fill="#29375F" fill-opacity="0.7"/>
<path d="M309.466 345.818H308.233V356H309.466V345.818ZM312.952 351.406C312.952 350.074 313.778 349.318 314.901 349.318C315.99 349.318 316.651 350.029 316.651 351.227V356H317.824V351.148C317.824 349.199 316.785 348.264 315.239 348.264C314.086 348.264 313.37 348.781 313.012 349.557H312.912V348.364H311.779V356H312.952V351.406ZM324.343 351.088H319.889V352.182H324.343V351.088ZM326.408 358.864H327.581V354.827H327.681C327.939 355.244 328.436 356.159 329.908 356.159C331.817 356.159 333.149 354.628 333.149 352.202C333.149 349.795 331.817 348.264 329.888 348.264C328.396 348.264 327.939 349.179 327.681 349.577H327.541V348.364H326.408V358.864ZM327.561 352.182C327.561 350.472 328.317 349.318 329.749 349.318C331.24 349.318 331.976 350.571 331.976 352.182C331.976 353.812 331.22 355.105 329.749 355.105C328.337 355.105 327.561 353.912 327.561 352.182ZM338.141 356.159C339.692 356.159 340.825 355.384 341.183 354.23L340.05 353.912C339.752 354.707 339.061 355.105 338.141 355.105C336.764 355.105 335.814 354.215 335.759 352.58H341.303V352.082C341.303 349.239 339.612 348.264 338.021 348.264C335.953 348.264 334.581 349.895 334.581 352.241C334.581 354.588 335.933 356.159 338.141 356.159ZM335.759 351.565C335.839 350.377 336.679 349.318 338.021 349.318C339.294 349.318 340.11 350.273 340.11 351.565H335.759ZM343.088 356H344.261V351.168C344.261 350.134 345.076 349.378 346.19 349.378C346.503 349.378 346.826 349.438 346.906 349.457V348.264C346.771 348.254 346.463 348.244 346.289 348.244C345.374 348.244 344.579 348.761 344.301 349.517H344.221V348.364H343.088V356ZM353.706 350.074C353.338 348.99 352.512 348.264 351.001 348.264C349.39 348.264 348.197 349.179 348.197 350.472C348.197 351.526 348.824 352.232 350.225 352.56L351.498 352.858C352.269 353.037 352.632 353.405 352.632 353.932C352.632 354.588 351.936 355.125 350.842 355.125C349.882 355.125 349.281 354.712 349.072 353.892L347.958 354.17C348.232 355.468 349.301 356.159 350.862 356.159C352.637 356.159 353.845 355.19 353.845 353.872C353.845 352.808 353.179 352.137 351.816 351.804L350.683 351.526C349.778 351.302 349.37 350.999 349.37 350.412C349.37 349.756 350.066 349.278 351.001 349.278C352.025 349.278 352.448 349.845 352.652 350.372L353.706 350.074ZM358.713 356.159C360.781 356.159 362.173 354.588 362.173 352.222C362.173 349.835 360.781 348.264 358.713 348.264C356.645 348.264 355.253 349.835 355.253 352.222C355.253 354.588 356.645 356.159 358.713 356.159ZM358.713 355.105C357.142 355.105 356.426 353.753 356.426 352.222C356.426 350.69 357.142 349.318 358.713 349.318C360.284 349.318 361 350.69 361 352.222C361 353.753 360.284 355.105 358.713 355.105ZM365.138 351.406C365.138 350.074 365.963 349.318 367.087 349.318C368.175 349.318 368.837 350.029 368.837 351.227V356H370.01V351.148C370.01 349.199 368.971 348.264 367.425 348.264C366.271 348.264 365.555 348.781 365.197 349.557H365.098V348.364H363.964V356H365.138V351.406Z" fill="#29375F" fill-opacity="0.7"/>
<path d="M39.5568 180.364H42.7038V189H44.5334V180.364H47.6804V178.818H39.5568V180.364ZM57.907 183.909C57.907 180.618 55.8984 178.679 53.2287 178.679C50.554 178.679 48.5504 180.618 48.5504 183.909C48.5504 187.195 50.554 189.139 53.2287 189.139C55.8984 189.139 57.907 187.2 57.907 183.909ZM56.0526 183.909C56.0526 186.226 54.8892 187.484 53.2287 187.484C51.5732 187.484 50.4048 186.226 50.4048 183.909C50.4048 181.592 51.5732 180.335 53.2287 180.335C54.8892 180.335 56.0526 181.592 56.0526 183.909ZM63.101 189C66.2033 189 68.0428 187.081 68.0428 183.899C68.0428 180.727 66.2033 178.818 63.1706 178.818H59.6507V189H63.101ZM61.4952 187.404V180.414H63.0662C65.1344 180.414 66.2132 181.567 66.2132 183.899C66.2132 186.241 65.1344 187.404 63.0115 187.404H61.4952ZM70.5559 189L71.3961 186.489H75.2243L76.0694 189H78.0382L74.4487 178.818H72.1717L68.5872 189H70.5559ZM71.8933 185.008L73.2704 180.906H73.35L74.7271 185.008H71.8933ZM77.6442 178.818L81.348 185.202V189H83.1875V185.202L86.8913 178.818H84.8082L82.3175 183.322H82.218L79.7273 178.818H77.6442ZM97.6138 186.097C98.8219 186.097 99.8013 185.117 99.8013 183.909C99.8013 182.701 98.8219 181.722 97.6138 181.722C96.4057 181.722 95.4263 182.701 95.4263 183.909C95.4263 185.117 96.4057 186.097 97.6138 186.097ZM109.034 178.818V189H110.803V181.99H110.898L113.712 188.97H115.034L117.848 182.005H117.943V189H119.713V178.818H117.455L114.433 186.196H114.313L111.291 178.818H109.034ZM130.819 183.909C130.819 180.618 128.811 178.679 126.141 178.679C123.466 178.679 121.463 180.618 121.463 183.909C121.463 187.195 123.466 189.139 126.141 189.139C128.811 189.139 130.819 187.2 130.819 183.909ZM128.965 183.909C128.965 186.226 127.801 187.484 126.141 187.484C124.485 187.484 123.317 186.226 123.317 183.909C123.317 181.592 124.485 180.335 126.141 180.335C127.801 180.335 128.965 181.592 128.965 183.909ZM140.93 178.818H139.096V185.759H139.006L134.213 178.818H132.563V189H134.407V182.065H134.492L139.289 189H140.93V178.818ZM146.39 189C149.492 189 151.332 187.081 151.332 183.899C151.332 180.727 149.492 178.818 146.46 178.818H142.94V189H146.39ZM144.784 187.404V180.414H146.355C148.423 180.414 149.502 181.567 149.502 183.899C149.502 186.241 148.423 187.404 146.301 187.404H144.784ZM153.845 189L154.685 186.489H158.513L159.358 189H161.327L157.738 178.818H155.461L151.876 189H153.845ZM155.182 185.008L156.559 180.906H156.639L158.016 185.008H155.182ZM160.933 178.818L164.637 185.202V189H166.477V185.202L170.18 178.818H168.097L165.607 183.322H165.507L163.016 178.818H160.933Z" fill="#29375F" fill-opacity="0.8"/>
<path d="M42.147 489H43.9666L46.0099 481.856H46.0895L48.1278 489H49.9474L52.821 478.818H50.8374L49.0028 486.305H48.9134L46.9496 478.818H45.1449L43.1861 486.3H43.0916L41.2571 478.818H39.2734L42.147 489ZM54.1 489H60.7619V487.454H55.9444V484.675H60.3791V483.129H55.9444V480.364H60.7221V478.818H54.1V489ZM66.0542 489C69.1564 489 70.9959 487.081 70.9959 483.899C70.9959 480.727 69.1564 478.818 66.1238 478.818H62.6039V489H66.0542ZM64.4483 487.404V480.414H66.0194C68.0875 480.414 69.1664 481.567 69.1664 483.899C69.1664 486.241 68.0875 487.404 65.9647 487.404H64.4483ZM81.1156 478.818H79.2811V485.759H79.1916L74.399 478.818H72.7484V489H74.5929V482.065H74.6774L79.475 489H81.1156V478.818ZM83.1254 489H89.7873V487.454H84.9698V484.675H89.4045V483.129H84.9698V480.364H89.7475V478.818H83.1254V489ZM97.1626 481.617H98.9375C98.9027 479.897 97.4361 478.679 95.2685 478.679C93.1307 478.679 91.5249 479.882 91.5298 481.682C91.5298 483.143 92.5689 483.984 94.2443 484.416L95.4027 484.714C96.5014 484.993 97.2273 485.336 97.2322 486.126C97.2273 486.996 96.402 487.578 95.1989 487.578C94.0455 487.578 93.1506 487.061 93.076 485.992H91.2614C91.3359 488.016 92.8423 489.154 95.2138 489.154C97.6548 489.154 99.0717 487.936 99.0767 486.141C99.0717 484.376 97.6151 483.571 96.0838 483.208L95.1293 482.969C94.294 482.771 93.3892 482.418 93.3991 481.567C93.4041 480.802 94.0902 480.24 95.2436 480.24C96.3423 480.24 97.0682 480.752 97.1626 481.617ZM104.171 489C107.274 489 109.113 487.081 109.113 483.899C109.113 480.727 107.274 478.818 104.241 478.818H100.721V489H104.171ZM102.566 487.404V480.414H104.137C106.205 480.414 107.284 481.567 107.284 483.899C107.284 486.241 106.205 487.404 104.082 487.404H102.566ZM111.626 489L112.466 486.489H116.295L117.14 489H119.108L115.519 478.818H113.242L109.657 489H111.626ZM112.964 485.008L114.341 480.906H114.42L115.797 485.008H112.964ZM118.714 478.818L122.418 485.202V489H124.258V485.202L127.962 478.818H125.879L123.388 483.322H123.288L120.798 478.818H118.714Z" fill="#29375F" fill-opacity="0.8"/>
<path d="M39.5568 308.364H42.7038V317H44.5334V308.364H47.6804V306.818H39.5568V308.364ZM57.907 311.909C57.907 308.618 55.8984 306.679 53.2287 306.679C50.554 306.679 48.5504 308.618 48.5504 311.909C48.5504 315.195 50.554 317.139 53.2287 317.139C55.8984 317.139 57.907 315.2 57.907 311.909ZM56.0526 311.909C56.0526 314.226 54.8892 315.484 53.2287 315.484C51.5732 315.484 50.4048 314.226 50.4048 311.909C50.4048 309.592 51.5732 308.335 53.2287 308.335C54.8892 308.335 56.0526 309.592 56.0526 311.909ZM59.6507 306.818V317H61.4206V309.99H61.5151L64.329 316.97H65.6515L68.4654 310.005H68.5598V317H70.3297V306.818H68.0726L65.0499 314.196H64.9306L61.9078 306.818H59.6507ZM81.4363 311.909C81.4363 308.618 79.4277 306.679 76.758 306.679C74.0833 306.679 72.0797 308.618 72.0797 311.909C72.0797 315.195 74.0833 317.139 76.758 317.139C79.4277 317.139 81.4363 315.2 81.4363 311.909ZM79.5819 311.909C79.5819 314.226 78.4185 315.484 76.758 315.484C75.1025 315.484 73.9341 314.226 73.9341 311.909C73.9341 309.592 75.1025 308.335 76.758 308.335C78.4185 308.335 79.5819 309.592 79.5819 311.909ZM83.18 317H85.0245V313.271H86.9038L88.9023 317H90.9606L88.7582 312.963C89.9563 312.481 90.5877 311.457 90.5877 310.075C90.5877 308.131 89.3349 306.818 86.9982 306.818H83.18V317ZM85.0245 311.74V308.359H86.7148C88.092 308.359 88.7085 308.991 88.7085 310.075C88.7085 311.158 88.092 311.74 86.7248 311.74H85.0245ZM92.2855 317H94.13V313.271H96.0092L98.0078 317H100.066L97.8636 312.963C99.0618 312.481 99.6932 311.457 99.6932 310.075C99.6932 308.131 98.4403 306.818 96.1037 306.818H92.2855V317ZM94.13 311.74V308.359H95.8203C97.1974 308.359 97.8139 308.991 97.8139 310.075C97.8139 311.158 97.1974 311.74 95.8303 311.74H94.13ZM110.489 311.909C110.489 308.618 108.48 306.679 105.811 306.679C103.136 306.679 101.132 308.618 101.132 311.909C101.132 315.195 103.136 317.139 105.811 317.139C108.48 317.139 110.489 315.2 110.489 311.909ZM108.635 311.909C108.635 314.226 107.471 315.484 105.811 315.484C104.155 315.484 102.987 314.226 102.987 311.909C102.987 309.592 104.155 308.335 105.811 308.335C107.471 308.335 108.635 309.592 108.635 311.909ZM114.116 317H115.935L117.979 309.856H118.058L120.097 317H121.916L124.79 306.818H122.806L120.972 314.305H120.882L118.918 306.818H117.114L115.155 314.3H115.06L113.226 306.818H111.242L114.116 317ZM135.485 314.097C136.693 314.097 137.672 313.117 137.672 311.909C137.672 310.701 136.693 309.722 135.485 309.722C134.277 309.722 133.297 310.701 133.297 311.909C133.297 313.117 134.277 314.097 135.485 314.097ZM146.457 308.364H149.604V317H151.434V308.364H154.581V306.818H146.457V308.364ZM162.565 306.818V313.316C162.565 314.594 161.675 315.509 160.278 315.509C158.876 315.509 157.991 314.594 157.991 313.316V306.818H156.147V313.47C156.147 315.658 157.787 317.154 160.278 317.154C162.759 317.154 164.41 315.658 164.41 313.47V306.818H162.565ZM166.414 317H173.076V315.454H168.259V312.675H172.694V311.129H168.259V308.364H173.037V306.818H166.414V317ZM180.452 309.617H182.227C182.192 307.897 180.725 306.679 178.558 306.679C176.42 306.679 174.814 307.882 174.819 309.682C174.819 311.143 175.858 311.984 177.533 312.416L178.692 312.714C179.79 312.993 180.516 313.336 180.521 314.126C180.516 314.996 179.691 315.578 178.488 315.578C177.335 315.578 176.44 315.061 176.365 313.992H174.55C174.625 316.016 176.131 317.154 178.503 317.154C180.944 317.154 182.361 315.936 182.366 314.141C182.361 312.376 180.904 311.571 179.373 311.208L178.418 310.969C177.583 310.771 176.678 310.418 176.688 309.567C176.693 308.802 177.379 308.24 178.533 308.24C179.631 308.24 180.357 308.752 180.452 309.617ZM187.46 317C190.563 317 192.402 315.081 192.402 311.899C192.402 308.727 190.563 306.818 187.53 306.818H184.01V317H187.46ZM185.855 315.404V308.414H187.426C189.494 308.414 190.573 309.567 190.573 311.899C190.573 314.241 189.494 315.404 187.371 315.404H185.855ZM194.915 317L195.756 314.489H199.584L200.429 317H202.398L198.808 306.818H196.531L192.947 317H194.915ZM196.253 313.008L197.63 308.906H197.709L199.086 313.008H196.253ZM202.004 306.818L205.707 313.202V317H207.547V313.202L211.251 306.818H209.168L206.677 311.322H206.577L204.087 306.818H202.004Z" fill="#29375F" fill-opacity="0.8"/>
<path d="M42.7415 219.153C40.9091 219.136 39.7116 220.453 39.7116 222.107C39.7159 223.773 40.9219 224.974 42.4347 224.974C43.3594 224.974 44.152 224.523 44.5994 223.79H44.6676C44.6634 225.797 43.9091 226.969 42.6307 226.969C41.7955 226.969 41.2585 226.457 41.0881 225.712H39.7884C39.9801 227.122 41.071 228.119 42.6307 228.119C44.6591 228.119 45.929 226.376 45.929 223.321C45.9247 220.134 44.2969 219.166 42.7415 219.153ZM42.7457 220.261C43.7557 220.261 44.5014 221.118 44.5014 222.077C44.5057 223.048 43.7173 223.901 42.7202 223.901C41.7188 223.901 40.9943 223.099 40.9901 222.089C40.9901 221.075 41.7443 220.261 42.7457 220.261ZM48.3249 222.545C48.7894 222.545 49.1772 222.166 49.1772 221.693C49.1772 221.229 48.7894 220.845 48.3249 220.845C47.8562 220.845 47.4727 221.229 47.4727 221.693C47.4727 222.166 47.8562 222.545 48.3249 222.545ZM48.3249 226.918C48.7894 226.918 49.1772 226.538 49.1772 226.065C49.1772 225.601 48.7894 225.217 48.3249 225.217C47.8562 225.217 47.4727 225.601 47.4727 226.065C47.4727 226.538 47.8562 226.918 48.3249 226.918ZM53.9052 228.145C55.9208 228.145 57.1012 226.5 57.1012 223.641C57.1012 220.803 55.9038 219.153 53.9052 219.153C51.9023 219.153 50.7092 220.798 50.7049 223.641C50.7049 226.496 51.8853 228.141 53.9052 228.145ZM53.9052 227.007C52.7248 227.007 52.0131 225.822 52.0131 223.641C52.0174 221.467 52.729 220.27 53.9052 220.27C55.0771 220.27 55.793 221.467 55.793 223.641C55.793 225.822 55.0813 227.007 53.9052 227.007ZM61.6513 228.145C63.6669 228.145 64.8473 226.5 64.8473 223.641C64.8473 220.803 63.6499 219.153 61.6513 219.153C59.6484 219.153 58.4553 220.798 58.451 223.641C58.451 226.496 59.6314 228.141 61.6513 228.145ZM61.6513 227.007C60.4709 227.007 59.7592 225.822 59.7592 223.641C59.7635 221.467 60.4751 220.27 61.6513 220.27C62.8232 220.27 63.5391 221.467 63.5391 223.641C63.5391 225.822 62.8274 227.007 61.6513 227.007ZM70.3913 228L71.1925 225.69H74.6016L75.3984 228H76.7962L73.6555 219.273H72.1342L68.9936 228H70.3913ZM71.576 224.582L72.8629 220.858H72.9311L74.218 224.582H71.576ZM78.0565 219.273V228H79.3093V221.68H79.3903L81.9641 227.987H83.0039L85.5778 221.685H85.6587V228H86.9116V219.273H85.3136L82.5352 226.057H82.4329L79.6545 219.273H78.0565ZM95.756 223.087H91.8867V224.19H95.756V223.087ZM103.515 219.153C101.683 219.136 100.485 220.453 100.485 222.107C100.489 223.773 101.695 224.974 103.208 224.974C104.133 224.974 104.925 224.523 105.373 223.79H105.441C105.437 225.797 104.683 226.969 103.404 226.969C102.569 226.969 102.032 226.457 101.862 225.712H100.562C100.754 227.122 101.844 228.119 103.404 228.119C105.433 228.119 106.702 226.376 106.702 223.321C106.698 220.134 105.07 219.166 103.515 219.153ZM103.519 220.261C104.529 220.261 105.275 221.118 105.275 222.077C105.279 223.048 104.491 223.901 103.494 223.901C102.492 223.901 101.768 223.099 101.763 222.089C101.763 221.075 102.518 220.261 103.519 220.261ZM109.098 222.545C109.563 222.545 109.951 222.166 109.951 221.693C109.951 221.229 109.563 220.845 109.098 220.845C108.63 220.845 108.246 221.229 108.246 221.693C108.246 222.166 108.63 222.545 109.098 222.545ZM109.098 226.918C109.563 226.918 109.951 226.538 109.951 226.065C109.951 225.601 109.563 225.217 109.098 225.217C108.63 225.217 108.246 225.601 108.246 226.065C108.246 226.538 108.63 226.918 109.098 226.918ZM111.457 226.295H115.595V228H116.852V226.295H118.007V225.179H116.852V219.273H115.228L111.457 225.23V226.295ZM115.603 225.179H112.838V225.111L115.535 220.841H115.603V225.179ZM122.53 228.145C124.546 228.145 125.726 226.5 125.726 223.641C125.726 220.803 124.529 219.153 122.53 219.153C120.527 219.153 119.334 220.798 119.33 223.641C119.33 226.496 120.51 228.141 122.53 228.145ZM122.53 227.007C121.35 227.007 120.638 225.822 120.638 223.641C120.642 221.467 121.354 220.27 122.53 220.27C123.702 220.27 124.418 221.467 124.418 223.641C124.418 225.822 123.706 227.007 122.53 227.007ZM131.27 228L132.071 225.69H135.48L136.277 228H137.675L134.534 219.273H133.013L129.873 228H131.27ZM132.455 224.582L133.742 220.858H133.81L135.097 224.582H132.455ZM138.935 219.273V228H140.188V221.68H140.269L142.843 227.987H143.883L146.457 221.685H146.538V228H147.79V219.273H146.192L143.414 226.057H143.312L140.533 219.273H138.935ZM158.277 225.511C159.312 225.511 160.152 224.672 160.152 223.636C160.152 222.601 159.312 221.761 158.277 221.761C157.241 221.761 156.402 222.601 156.402 223.636C156.402 224.672 157.241 225.511 158.277 225.511ZM168.457 226.295H172.595V228H173.852V226.295H175.007V225.179H173.852V219.273H172.228L168.457 225.23V226.295ZM172.603 225.179H169.838V225.111L172.535 220.841H172.603V225.179ZM179.53 228.145C181.546 228.145 182.726 226.5 182.726 223.641C182.726 220.803 181.529 219.153 179.53 219.153C177.527 219.153 176.334 220.798 176.33 223.641C176.33 226.496 177.51 228.141 179.53 228.145ZM179.53 227.007C178.35 227.007 177.638 225.822 177.638 223.641C177.642 221.467 178.354 220.27 179.53 220.27C180.702 220.27 181.418 221.467 181.418 223.641C181.418 225.822 180.706 227.007 179.53 227.007ZM187.431 228H188.705V223.964C188.705 223.082 189.323 222.469 190.047 222.469C190.755 222.469 191.245 222.938 191.245 223.649V228H192.515V223.828C192.515 223.04 192.996 222.469 193.827 222.469C194.5 222.469 195.054 222.844 195.054 223.73V228H196.328V223.611C196.328 222.115 195.493 221.369 194.309 221.369C193.367 221.369 192.659 221.821 192.344 222.52H192.276C191.99 221.804 191.39 221.369 190.516 221.369C189.651 221.369 189.007 221.8 188.735 222.52H188.654V221.455H187.431V228ZM198.036 228H199.31V221.455H198.036V228ZM198.68 220.445C199.119 220.445 199.485 220.104 199.485 219.686C199.485 219.268 199.119 218.923 198.68 218.923C198.237 218.923 197.874 219.268 197.874 219.686C197.874 220.104 198.237 220.445 198.68 220.445ZM202.299 224.114C202.299 223.07 202.938 222.473 203.824 222.473C204.689 222.473 205.213 223.04 205.213 223.99V228H206.488V223.837C206.488 222.217 205.597 221.369 204.259 221.369C203.275 221.369 202.631 221.825 202.328 222.52H202.248V221.455H201.025V228H202.299V224.114ZM212.343 225.286C212.347 226.398 211.52 226.926 210.804 226.926C210.016 226.926 209.471 226.355 209.471 225.464V221.455H208.196V225.618C208.196 227.241 209.087 228.085 210.344 228.085C211.328 228.085 211.998 227.565 212.3 226.866H212.368V228H213.621V221.455H212.343V225.286ZM218.388 221.455H217.046V219.886H215.772V221.455H214.813V222.477H215.772V226.342C215.768 227.531 216.675 228.107 217.681 228.085C218.086 228.081 218.359 228.004 218.508 227.949L218.278 226.896C218.192 226.913 218.035 226.952 217.83 226.952C217.417 226.952 217.046 226.815 217.046 226.078V222.477H218.388V221.455ZM222.549 228.132C223.976 228.132 224.986 227.429 225.276 226.364L224.07 226.146C223.84 226.764 223.286 227.08 222.561 227.08C221.471 227.08 220.738 226.372 220.703 225.111H225.357V224.659C225.357 222.294 223.942 221.369 222.459 221.369C220.635 221.369 219.434 222.759 219.434 224.77C219.434 226.803 220.618 228.132 222.549 228.132ZM220.708 224.156C220.759 223.227 221.432 222.422 222.468 222.422C223.456 222.422 224.104 223.155 224.108 224.156H220.708ZM231.675 223.053C231.411 222.034 230.614 221.369 229.2 221.369C227.721 221.369 226.673 222.149 226.673 223.308C226.673 224.237 227.235 224.855 228.462 225.128L229.57 225.371C230.201 225.511 230.495 225.793 230.495 226.202C230.495 226.709 229.954 227.105 229.119 227.105C228.356 227.105 227.866 226.777 227.712 226.134L226.481 226.321C226.694 227.48 227.657 228.132 229.127 228.132C230.708 228.132 231.803 227.293 231.803 226.108C231.803 225.183 231.215 224.612 230.013 224.335L228.974 224.097C228.254 223.926 227.942 223.683 227.947 223.24C227.942 222.737 228.488 222.379 229.212 222.379C230.005 222.379 230.371 222.818 230.521 223.257L231.675 223.053Z" fill="#008D17"/>
<path d="M42.7415 347.153C40.9091 347.136 39.7116 348.453 39.7116 350.107C39.7159 351.773 40.9219 352.974 42.4347 352.974C43.3594 352.974 44.152 352.523 44.5994 351.79H44.6676C44.6634 353.797 43.9091 354.969 42.6307 354.969C41.7955 354.969 41.2585 354.457 41.0881 353.712H39.7884C39.9801 355.122 41.071 356.119 42.6307 356.119C44.6591 356.119 45.929 354.376 45.929 351.321C45.9247 348.134 44.2969 347.166 42.7415 347.153ZM42.7457 348.261C43.7557 348.261 44.5014 349.118 44.5014 350.077C44.5057 351.048 43.7173 351.901 42.7202 351.901C41.7188 351.901 40.9943 351.099 40.9901 350.089C40.9901 349.075 41.7443 348.261 42.7457 348.261ZM48.3249 350.545C48.7894 350.545 49.1772 350.166 49.1772 349.693C49.1772 349.229 48.7894 348.845 48.3249 348.845C47.8562 348.845 47.4727 349.229 47.4727 349.693C47.4727 350.166 47.8562 350.545 48.3249 350.545ZM48.3249 354.918C48.7894 354.918 49.1772 354.538 49.1772 354.065C49.1772 353.601 48.7894 353.217 48.3249 353.217C47.8562 353.217 47.4727 353.601 47.4727 354.065C47.4727 354.538 47.8562 354.918 48.3249 354.918ZM53.9052 356.145C55.9208 356.145 57.1012 354.5 57.1012 351.641C57.1012 348.803 55.9038 347.153 53.9052 347.153C51.9023 347.153 50.7092 348.798 50.7049 351.641C50.7049 354.496 51.8853 356.141 53.9052 356.145ZM53.9052 355.007C52.7248 355.007 52.0131 353.822 52.0131 351.641C52.0174 349.467 52.729 348.27 53.9052 348.27C55.0771 348.27 55.793 349.467 55.793 351.641C55.793 353.822 55.0813 355.007 53.9052 355.007ZM61.6513 356.145C63.6669 356.145 64.8473 354.5 64.8473 351.641C64.8473 348.803 63.6499 347.153 61.6513 347.153C59.6484 347.153 58.4553 348.798 58.451 351.641C58.451 354.496 59.6314 356.141 61.6513 356.145ZM61.6513 355.007C60.4709 355.007 59.7592 353.822 59.7592 351.641C59.7635 349.467 60.4751 348.27 61.6513 348.27C62.8232 348.27 63.5391 349.467 63.5391 351.641C63.5391 353.822 62.8274 355.007 61.6513 355.007ZM70.3913 356L71.1925 353.69H74.6016L75.3984 356H76.7962L73.6555 347.273H72.1342L68.9936 356H70.3913ZM71.576 352.582L72.8629 348.858H72.9311L74.218 352.582H71.576ZM78.0565 347.273V356H79.3093V349.68H79.3903L81.9641 355.987H83.0039L85.5778 349.685H85.6587V356H86.9116V347.273H85.3136L82.5352 354.057H82.4329L79.6545 347.273H78.0565ZM95.756 351.087H91.8867V352.19H95.756V351.087ZM103.515 347.153C101.683 347.136 100.485 348.453 100.485 350.107C100.489 351.773 101.695 352.974 103.208 352.974C104.133 352.974 104.925 352.523 105.373 351.79H105.441C105.437 353.797 104.683 354.969 103.404 354.969C102.569 354.969 102.032 354.457 101.862 353.712H100.562C100.754 355.122 101.844 356.119 103.404 356.119C105.433 356.119 106.702 354.376 106.702 351.321C106.698 348.134 105.07 347.166 103.515 347.153ZM103.519 348.261C104.529 348.261 105.275 349.118 105.275 350.077C105.279 351.048 104.491 351.901 103.494 351.901C102.492 351.901 101.768 351.099 101.763 350.089C101.763 349.075 102.518 348.261 103.519 348.261ZM109.098 350.545C109.563 350.545 109.951 350.166 109.951 349.693C109.951 349.229 109.563 348.845 109.098 348.845C108.63 348.845 108.246 349.229 108.246 349.693C108.246 350.166 108.63 350.545 109.098 350.545ZM109.098 354.918C109.563 354.918 109.951 354.538 109.951 354.065C109.951 353.601 109.563 353.217 109.098 353.217C108.63 353.217 108.246 353.601 108.246 354.065C108.246 354.538 108.63 354.918 109.098 354.918ZM111.457 354.295H115.595V356H116.852V354.295H118.007V353.179H116.852V347.273H115.228L111.457 353.23V354.295ZM115.603 353.179H112.838V353.111L115.535 348.841H115.603V353.179ZM122.53 356.145C124.546 356.145 125.726 354.5 125.726 351.641C125.726 348.803 124.529 347.153 122.53 347.153C120.527 347.153 119.334 348.798 119.33 351.641C119.33 354.496 120.51 356.141 122.53 356.145ZM122.53 355.007C121.35 355.007 120.638 353.822 120.638 351.641C120.642 349.467 121.354 348.27 122.53 348.27C123.702 348.27 124.418 349.467 124.418 351.641C124.418 353.822 123.706 355.007 122.53 355.007ZM131.27 356L132.071 353.69H135.48L136.277 356H137.675L134.534 347.273H133.013L129.873 356H131.27ZM132.455 352.582L133.742 348.858H133.81L135.097 352.582H132.455ZM138.935 347.273V356H140.188V349.68H140.269L142.843 355.987H143.883L146.457 349.685H146.538V356H147.79V347.273H146.192L143.414 354.057H143.312L140.533 347.273H138.935ZM158.277 353.511C159.312 353.511 160.152 352.672 160.152 351.636C160.152 350.601 159.312 349.761 158.277 349.761C157.241 349.761 156.402 350.601 156.402 351.636C156.402 352.672 157.241 353.511 158.277 353.511ZM168.457 354.295H172.595V356H173.852V354.295H175.007V353.179H173.852V347.273H172.228L168.457 353.23V354.295ZM172.603 353.179H169.838V353.111L172.535 348.841H172.603V353.179ZM179.53 356.145C181.546 356.145 182.726 354.5 182.726 351.641C182.726 348.803 181.529 347.153 179.53 347.153C177.527 347.153 176.334 348.798 176.33 351.641C176.33 354.496 177.51 356.141 179.53 356.145ZM179.53 355.007C178.35 355.007 177.638 353.822 177.638 351.641C177.642 349.467 178.354 348.27 179.53 348.27C180.702 348.27 181.418 349.467 181.418 351.641C181.418 353.822 180.706 355.007 179.53 355.007ZM187.431 356H188.705V351.964C188.705 351.082 189.323 350.469 190.047 350.469C190.755 350.469 191.245 350.938 191.245 351.649V356H192.515V351.828C192.515 351.04 192.996 350.469 193.827 350.469C194.5 350.469 195.054 350.844 195.054 351.73V356H196.328V351.611C196.328 350.115 195.493 349.369 194.309 349.369C193.367 349.369 192.659 349.821 192.344 350.52H192.276C191.99 349.804 191.39 349.369 190.516 349.369C189.651 349.369 189.007 349.8 188.735 350.52H188.654V349.455H187.431V356ZM198.036 356H199.31V349.455H198.036V356ZM198.68 348.445C199.119 348.445 199.485 348.104 199.485 347.686C199.485 347.268 199.119 346.923 198.68 346.923C198.237 346.923 197.874 347.268 197.874 347.686C197.874 348.104 198.237 348.445 198.68 348.445ZM202.299 352.114C202.299 351.07 202.938 350.473 203.824 350.473C204.689 350.473 205.213 351.04 205.213 351.99V356H206.488V351.837C206.488 350.217 205.597 349.369 204.259 349.369C203.275 349.369 202.631 349.825 202.328 350.52H202.248V349.455H201.025V356H202.299V352.114ZM212.343 353.286C212.347 354.398 211.52 354.926 210.804 354.926C210.016 354.926 209.471 354.355 209.471 353.464V349.455H208.196V353.618C208.196 355.241 209.087 356.085 210.344 356.085C211.328 356.085 211.998 355.565 212.3 354.866H212.368V356H213.621V349.455H212.343V353.286ZM218.388 349.455H217.046V347.886H215.772V349.455H214.813V350.477H215.772V354.342C215.768 355.531 216.675 356.107 217.681 356.085C218.086 356.081 218.359 356.004 218.508 355.949L218.278 354.896C218.192 354.913 218.035 354.952 217.83 354.952C217.417 354.952 217.046 354.815 217.046 354.078V350.477H218.388V349.455ZM222.549 356.132C223.976 356.132 224.986 355.429 225.276 354.364L224.07 354.146C223.84 354.764 223.286 355.08 222.561 355.08C221.471 355.08 220.738 354.372 220.703 353.111H225.357V352.659C225.357 350.294 223.942 349.369 222.459 349.369C220.635 349.369 219.434 350.759 219.434 352.77C219.434 354.803 220.618 356.132 222.549 356.132ZM220.708 352.156C220.759 351.227 221.432 350.422 222.468 350.422C223.456 350.422 224.104 351.155 224.108 352.156H220.708ZM231.675 351.053C231.411 350.034 230.614 349.369 229.2 349.369C227.721 349.369 226.673 350.149 226.673 351.308C226.673 352.237 227.235 352.855 228.462 353.128L229.57 353.371C230.201 353.511 230.495 353.793 230.495 354.202C230.495 354.709 229.954 355.105 229.119 355.105C228.356 355.105 227.866 354.777 227.712 354.134L226.481 354.321C226.694 355.48 227.657 356.132 229.127 356.132C230.708 356.132 231.803 355.293 231.803 354.108C231.803 353.183 231.215 352.612 230.013 352.335L228.974 352.097C228.254 351.926 227.942 351.683 227.947 351.24C227.942 350.737 228.488 350.379 229.212 350.379C230.005 350.379 230.371 350.818 230.521 351.257L231.675 351.053Z" fill="#008D17"/>
<path d="M42.8778 272.119C44.6591 272.119 45.9673 271.054 45.9631 269.605C45.9673 268.501 45.2983 267.709 44.1392 267.53V267.462C45.0511 267.227 45.6435 266.511 45.6392 265.531C45.6435 264.249 44.5909 263.153 42.9119 263.153C41.3097 263.153 40.0227 264.121 39.9801 265.54H41.2543C41.2841 264.739 42.0384 264.253 42.8949 264.253C43.7855 264.253 44.3693 264.794 44.3651 265.599C44.3693 266.443 43.6918 266.997 42.7244 266.997H41.9872V268.071H42.7244C43.9347 268.071 44.6335 268.685 44.6335 269.562C44.6335 270.411 43.8963 270.986 42.8693 270.986C41.9233 270.986 41.1861 270.5 41.1349 269.724H39.7969C39.8523 271.148 41.1136 272.119 42.8778 272.119ZM48.4304 266.545C48.8949 266.545 49.2827 266.166 49.2827 265.693C49.2827 265.229 48.8949 264.845 48.4304 264.845C47.9616 264.845 47.5781 265.229 47.5781 265.693C47.5781 266.166 47.9616 266.545 48.4304 266.545ZM48.4304 270.918C48.8949 270.918 49.2827 270.538 49.2827 270.065C49.2827 269.601 48.8949 269.217 48.4304 269.217C47.9616 269.217 47.5781 269.601 47.5781 270.065C47.5781 270.538 47.9616 270.918 48.4304 270.918ZM54.0107 272.119C55.7919 272.119 57.1001 271.054 57.0959 269.605C57.1001 268.501 56.4311 267.709 55.272 267.53V267.462C56.1839 267.227 56.7763 266.511 56.772 265.531C56.7763 264.249 55.7237 263.153 54.0447 263.153C52.4425 263.153 51.1555 264.121 51.1129 265.54H52.3871C52.4169 264.739 53.1712 264.253 54.0277 264.253C54.9183 264.253 55.5021 264.794 55.4979 265.599C55.5021 266.443 54.8246 266.997 53.8572 266.997H53.12V268.071H53.8572C55.0675 268.071 55.7663 268.685 55.7663 269.562C55.7663 270.411 55.0291 270.986 54.0021 270.986C53.0561 270.986 52.3189 270.5 52.2678 269.724H50.9297C50.9851 271.148 52.2464 272.119 54.0107 272.119ZM61.745 272.145C63.7607 272.145 64.9411 270.5 64.9411 267.641C64.9411 264.803 63.7436 263.153 61.745 263.153C59.7422 263.153 58.549 264.798 58.5447 267.641C58.5447 270.496 59.7251 272.141 61.745 272.145ZM61.745 271.007C60.5646 271.007 59.853 269.822 59.853 267.641C59.8572 265.467 60.5689 264.27 61.745 264.27C62.9169 264.27 63.6328 265.467 63.6328 267.641C63.6328 269.822 62.9212 271.007 61.745 271.007ZM69.7479 272H71.0646V268.932H72.8544C74.8786 268.932 75.88 267.709 75.88 266.098C75.88 264.491 74.8871 263.273 72.8587 263.273H69.7479V272ZM71.0646 267.815V264.402H72.718C74.022 264.402 74.5547 265.109 74.5547 266.098C74.5547 267.087 74.022 267.815 72.7351 267.815H71.0646ZM77.4237 263.273V272H78.6765V265.68H78.7575L81.3313 271.987H82.3711L84.945 265.685H85.0259V272H86.2788V263.273H84.6808L81.9023 270.057H81.8001L79.0217 263.273H77.4237ZM95.1232 267.087H91.2539V268.19H95.1232V267.087ZM100.274 272H101.651L105.447 264.44V263.273H99.6776V264.402H104.084V264.466L100.274 272ZM107.376 266.545C107.84 266.545 108.228 266.166 108.228 265.693C108.228 265.229 107.84 264.845 107.376 264.845C106.907 264.845 106.523 265.229 106.523 265.693C106.523 266.166 106.907 266.545 107.376 266.545ZM107.376 270.918C107.84 270.918 108.228 270.538 108.228 270.065C108.228 269.601 107.84 269.217 107.376 269.217C106.907 269.217 106.523 269.601 106.523 270.065C106.523 270.538 106.907 270.918 107.376 270.918ZM112.956 272.119C114.737 272.119 116.045 271.054 116.041 269.605C116.045 268.501 115.376 267.709 114.217 267.53V267.462C115.129 267.227 115.722 266.511 115.717 265.531C115.722 264.249 114.669 263.153 112.99 263.153C111.388 263.153 110.101 264.121 110.058 265.54H111.332C111.362 264.739 112.116 264.253 112.973 264.253C113.864 264.253 114.447 264.794 114.443 265.599C114.447 266.443 113.77 266.997 112.803 266.997H112.065V268.071H112.803C114.013 268.071 114.712 268.685 114.712 269.562C114.712 270.411 113.974 270.986 112.947 270.986C112.001 270.986 111.264 270.5 111.213 269.724H109.875C109.93 271.148 111.192 272.119 112.956 272.119ZM120.69 272.145C122.706 272.145 123.886 270.5 123.886 267.641C123.886 264.803 122.689 263.153 120.69 263.153C118.688 263.153 117.494 264.798 117.49 267.641C117.49 270.496 118.67 272.141 120.69 272.145ZM120.69 271.007C119.51 271.007 118.798 269.822 118.798 267.641C118.803 265.467 119.514 264.27 120.69 264.27C121.862 264.27 122.578 265.467 122.578 267.641C122.578 269.822 121.866 271.007 120.69 271.007ZM128.693 272H130.01V268.932H131.8C133.824 268.932 134.825 267.709 134.825 266.098C134.825 264.491 133.832 263.273 131.804 263.273H128.693V272ZM130.01 267.815V264.402H131.663C132.967 264.402 133.5 265.109 133.5 266.098C133.5 267.087 132.967 267.815 131.68 267.815H130.01ZM136.369 263.273V272H137.622V265.68H137.703L140.277 271.987H141.316L143.89 265.685H143.971V272H145.224V263.273H143.626L140.848 270.057H140.745L137.967 263.273H136.369ZM155.71 269.511C156.746 269.511 157.585 268.672 157.585 267.636C157.585 266.601 156.746 265.761 155.71 265.761C154.675 265.761 153.835 266.601 153.835 267.636C153.835 268.672 154.675 269.511 155.71 269.511ZM165.891 270.295H170.028V272H171.286V270.295H172.44V269.179H171.286V263.273H169.662L165.891 269.23V270.295ZM170.037 269.179H167.271V269.111L169.969 264.841H170.037V269.179ZM178.392 268.114C178.392 267.07 179.053 266.473 179.961 266.473C180.838 266.473 181.363 267.031 181.363 267.99V272H182.637V267.837C182.637 266.205 181.742 265.369 180.395 265.369C179.377 265.369 178.763 265.812 178.456 266.52H178.375V263.273H177.118V272H178.392V268.114ZM187.094 272.132C188.939 272.132 190.145 270.781 190.145 268.757C190.145 266.72 188.939 265.369 187.094 265.369C185.249 265.369 184.043 266.72 184.043 268.757C184.043 270.781 185.249 272.132 187.094 272.132ZM187.098 271.062C185.892 271.062 185.33 270.01 185.33 268.753C185.33 267.5 185.892 266.435 187.098 266.435C188.296 266.435 188.858 267.5 188.858 268.753C188.858 270.01 188.296 271.062 187.098 271.062ZM195.714 269.286C195.718 270.398 194.891 270.926 194.175 270.926C193.387 270.926 192.842 270.355 192.842 269.464V265.455H191.567V269.618C191.567 271.241 192.458 272.085 193.715 272.085C194.7 272.085 195.369 271.565 195.671 270.866H195.739V272H196.992V265.455H195.714V269.286ZM198.704 272H199.978V268.003C199.978 267.146 200.639 266.528 201.542 266.528C201.806 266.528 202.105 266.575 202.207 266.605V265.386C202.079 265.369 201.828 265.357 201.666 265.357C200.899 265.357 200.243 265.791 200.004 266.494H199.936V265.455H198.704V272ZM208.214 267.053C207.95 266.034 207.153 265.369 205.739 265.369C204.26 265.369 203.212 266.149 203.212 267.308C203.212 268.237 203.774 268.855 205.001 269.128L206.109 269.371C206.74 269.511 207.034 269.793 207.034 270.202C207.034 270.709 206.493 271.105 205.658 271.105C204.895 271.105 204.405 270.777 204.251 270.134L203.02 270.321C203.233 271.48 204.196 272.132 205.666 272.132C207.247 272.132 208.342 271.293 208.342 270.108C208.342 269.183 207.754 268.612 206.553 268.335L205.513 268.097C204.793 267.926 204.482 267.683 204.486 267.24C204.482 266.737 205.027 266.379 205.751 266.379C206.544 266.379 206.911 266.818 207.06 267.257L208.214 267.053Z" fill="#008D17"/>
<path d="M43.1506 391.273H41.8679L39.6903 392.696V393.957L41.7784 392.594H41.8295V400H43.1506V391.273ZM45.5114 400H51.2557V398.871H47.3267V398.807L49.0611 396.991C50.6591 395.376 51.1151 394.605 51.1151 393.629C51.1151 392.227 49.973 391.153 48.3281 391.153C46.696 391.153 45.5028 392.21 45.5028 393.804H46.7599C46.7557 392.866 47.3608 392.253 48.3026 392.253C49.1889 392.253 49.8622 392.798 49.8622 393.668C49.8622 394.439 49.402 394.993 48.4645 395.986L45.5114 399.045V400ZM53.7273 394.545C54.1918 394.545 54.5795 394.166 54.5795 393.693C54.5795 393.229 54.1918 392.845 53.7273 392.845C53.2585 392.845 52.875 393.229 52.875 393.693C52.875 394.166 53.2585 394.545 53.7273 394.545ZM53.7273 398.918C54.1918 398.918 54.5795 398.538 54.5795 398.065C54.5795 397.601 54.1918 397.217 53.7273 397.217C53.2585 397.217 52.875 397.601 52.875 398.065C52.875 398.538 53.2585 398.918 53.7273 398.918ZM56.2692 400H62.0135V398.871H58.0845V398.807L59.8189 396.991C61.4169 395.376 61.8729 394.605 61.8729 393.629C61.8729 392.227 60.7308 391.153 59.0859 391.153C57.4538 391.153 56.2607 392.21 56.2607 393.804H57.5178C57.5135 392.866 58.1186 392.253 59.0604 392.253C59.9467 392.253 60.62 392.798 60.62 393.668C60.62 394.439 60.1598 394.993 59.2223 395.986L56.2692 399.045V400ZM66.6669 400.145C68.6825 400.145 69.8629 398.5 69.8629 395.641C69.8629 392.803 68.6655 391.153 66.6669 391.153C64.6641 391.153 63.4709 392.798 63.4666 395.641C63.4666 398.496 64.647 400.141 66.6669 400.145ZM66.6669 399.007C65.4865 399.007 64.7749 397.822 64.7749 395.641C64.7791 393.467 65.4908 392.27 66.6669 392.27C67.8388 392.27 68.5547 393.467 68.5547 395.641C68.5547 397.822 67.843 399.007 66.6669 399.007ZM74.6697 400H75.9865V396.932H77.7763C79.8004 396.932 80.8018 395.709 80.8018 394.098C80.8018 392.491 79.8089 391.273 77.7805 391.273H74.6697V400ZM75.9865 395.815V392.402H77.6399C78.9439 392.402 79.4766 393.109 79.4766 394.098C79.4766 395.087 78.9439 395.815 77.657 395.815H75.9865ZM82.3455 391.273V400H83.5984V393.68H83.6793L86.2532 399.987H87.293L89.8668 393.685H89.9478V400H91.2006V391.273H89.6026L86.8242 398.057H86.7219L83.9435 391.273H82.3455ZM100.045 395.087H96.1758V396.19H100.045V395.087ZM107.949 400.119C109.773 400.136 110.983 398.824 110.979 397.149C110.983 395.479 109.768 394.281 108.256 394.281C107.335 394.281 106.538 394.724 106.091 395.462H106.027C106.031 393.48 106.781 392.304 108.06 392.304C108.899 392.304 109.428 392.815 109.607 393.54H110.906C110.706 392.159 109.619 391.153 108.06 391.153C106.031 391.153 104.766 392.896 104.766 395.93C104.761 399.143 106.398 400.107 107.949 400.119ZM107.945 399.011C106.93 399.011 106.189 398.159 106.189 397.179C106.193 396.203 106.969 395.351 107.974 395.351C108.972 395.351 109.705 396.156 109.7 397.166C109.705 398.197 108.942 399.011 107.945 399.011ZM113.387 394.545C113.852 394.545 114.24 394.166 114.24 393.693C114.24 393.229 113.852 392.845 113.387 392.845C112.919 392.845 112.535 393.229 112.535 393.693C112.535 394.166 112.919 394.545 113.387 394.545ZM113.387 398.918C113.852 398.918 114.24 398.538 114.24 398.065C114.24 397.601 113.852 397.217 113.387 397.217C112.919 397.217 112.535 397.601 112.535 398.065C112.535 398.538 112.919 398.918 113.387 398.918ZM118.968 400.119C120.749 400.119 122.057 399.054 122.053 397.605C122.057 396.501 121.388 395.709 120.229 395.53V395.462C121.141 395.227 121.733 394.511 121.729 393.531C121.733 392.249 120.681 391.153 119.002 391.153C117.4 391.153 116.113 392.121 116.07 393.54H117.344C117.374 392.739 118.128 392.253 118.985 392.253C119.875 392.253 120.459 392.794 120.455 393.599C120.459 394.443 119.782 394.997 118.814 394.997H118.077V396.071H118.814C120.025 396.071 120.723 396.685 120.723 397.562C120.723 398.411 119.986 398.986 118.959 398.986C118.013 398.986 117.276 398.5 117.225 397.724H115.887C115.942 399.148 117.203 400.119 118.968 400.119ZM126.702 400.145C128.718 400.145 129.898 398.5 129.898 395.641C129.898 392.803 128.701 391.153 126.702 391.153C124.699 391.153 123.506 392.798 123.502 395.641C123.502 398.496 124.682 400.141 126.702 400.145ZM126.702 399.007C125.522 399.007 124.81 397.822 124.81 395.641C124.814 393.467 125.526 392.27 126.702 392.27C127.874 392.27 128.59 393.467 128.59 395.641C128.59 397.822 127.878 399.007 126.702 399.007ZM134.705 400H136.022V396.932H137.811C139.836 396.932 140.837 395.709 140.837 394.098C140.837 392.491 139.844 391.273 137.816 391.273H134.705V400ZM136.022 395.815V392.402H137.675C138.979 392.402 139.512 393.109 139.512 394.098C139.512 395.087 138.979 395.815 137.692 395.815H136.022ZM142.381 391.273V400H143.634V393.68H143.714L146.288 399.987H147.328L149.902 393.685H149.983V400H151.236V391.273H149.638L146.859 398.057H146.757L143.979 391.273H142.381ZM161.722 397.511C162.757 397.511 163.597 396.672 163.597 395.636C163.597 394.601 162.757 393.761 161.722 393.761C160.686 393.761 159.847 394.601 159.847 395.636C159.847 396.672 160.686 397.511 161.722 397.511ZM175.132 400.119C176.956 400.136 178.167 398.824 178.162 397.149C178.167 395.479 176.952 394.281 175.439 394.281C174.519 394.281 173.722 394.724 173.275 395.462H173.211C173.215 393.48 173.965 392.304 175.243 392.304C176.083 392.304 176.611 392.815 176.79 393.54H178.09C177.89 392.159 176.803 391.153 175.243 391.153C173.215 391.153 171.949 392.896 171.949 395.93C171.945 399.143 173.581 400.107 175.132 400.119ZM175.128 399.011C174.114 399.011 173.373 398.159 173.373 397.179C173.377 396.203 174.152 395.351 175.158 395.351C176.155 395.351 176.888 396.156 176.884 397.166C176.888 398.197 176.125 399.011 175.128 399.011ZM184.181 396.114C184.181 395.07 184.842 394.473 185.75 394.473C186.627 394.473 187.152 395.031 187.152 395.99V400H188.426V395.837C188.426 394.205 187.531 393.369 186.184 393.369C185.166 393.369 184.552 393.812 184.245 394.52H184.164V391.273H182.907V400H184.181V396.114ZM192.883 400.132C194.728 400.132 195.934 398.781 195.934 396.757C195.934 394.72 194.728 393.369 192.883 393.369C191.038 393.369 189.832 394.72 189.832 396.757C189.832 398.781 191.038 400.132 192.883 400.132ZM192.887 399.062C191.681 399.062 191.119 398.01 191.119 396.753C191.119 395.5 191.681 394.435 192.887 394.435C194.085 394.435 194.647 395.5 194.647 396.753C194.647 398.01 194.085 399.062 192.887 399.062ZM201.503 397.286C201.507 398.398 200.68 398.926 199.964 398.926C199.176 398.926 198.631 398.355 198.631 397.464V393.455H197.357V397.618C197.357 399.241 198.247 400.085 199.504 400.085C200.489 400.085 201.158 399.565 201.46 398.866H201.528V400H202.781V393.455H201.503V397.286ZM204.493 400H205.767V396.003C205.767 395.146 206.428 394.528 207.331 394.528C207.596 394.528 207.894 394.575 207.996 394.605V393.386C207.868 393.369 207.617 393.357 207.455 393.357C206.688 393.357 206.032 393.791 205.793 394.494H205.725V393.455H204.493V400ZM214.004 395.053C213.739 394.034 212.942 393.369 211.528 393.369C210.049 393.369 209.001 394.149 209.001 395.308C209.001 396.237 209.563 396.855 210.79 397.128L211.898 397.371C212.529 397.511 212.823 397.793 212.823 398.202C212.823 398.709 212.282 399.105 211.447 399.105C210.684 399.105 210.194 398.777 210.04 398.134L208.809 398.321C209.022 399.48 209.985 400.132 211.455 400.132C213.036 400.132 214.131 399.293 214.131 398.108C214.131 397.183 213.543 396.612 212.342 396.335L211.302 396.097C210.582 395.926 210.271 395.683 210.275 395.24C210.271 394.737 210.816 394.379 211.54 394.379C212.333 394.379 212.7 394.818 212.849 395.257L214.004 395.053Z" fill="#008D17"/>
<path d="M321.196 401L322.221 398.116H326.337L327.361 401H328.654L324.915 390.818H323.642L319.904 401H321.196ZM322.608 397.023L324.239 392.429H324.319L325.949 397.023H322.608ZM331.254 396.406C331.254 395.074 332.079 394.318 333.203 394.318C334.292 394.318 334.953 395.029 334.953 396.227V401H336.126V396.148C336.126 394.199 335.087 393.264 333.541 393.264C332.388 393.264 331.672 393.781 331.314 394.557H331.214V393.364H330.081V401H331.254V396.406ZM338.752 403.864C339.811 403.864 340.557 403.302 341 402.114L344.251 393.384L342.968 393.364L340.86 399.449H340.781L338.673 393.364H337.4L340.224 401.04L340.005 401.636C339.578 402.8 339.051 402.909 338.196 402.69L337.897 403.724C338.017 403.784 338.355 403.864 338.752 403.864ZM349.124 393.364H347.494V391.534H346.32V393.364H345.167V394.358H346.32V399.131C346.32 400.463 347.394 401.099 348.389 401.099C348.826 401.099 349.104 401.02 349.264 400.96L349.025 399.906C348.926 399.926 348.766 399.966 348.508 399.966C347.991 399.966 347.494 399.807 347.494 398.812V394.358H349.124V393.364ZM350.889 401H352.063V393.364H350.889V401ZM351.486 392.091C351.943 392.091 352.321 391.733 352.321 391.295C352.321 390.858 351.943 390.5 351.486 390.5C351.028 390.5 350.651 390.858 350.651 391.295C350.651 391.733 351.028 392.091 351.486 392.091ZM354.212 401H355.385V396.227C355.385 395.109 356.2 394.318 357.115 394.318C358.005 394.318 358.626 394.9 358.626 395.77V401H359.82V396.028C359.82 395.044 360.436 394.318 361.51 394.318C362.345 394.318 363.061 394.761 363.061 395.889V401H364.234V395.889C364.234 394.094 363.27 393.264 361.908 393.264C360.814 393.264 360.013 393.766 359.621 394.557H359.541C359.163 393.741 358.497 393.264 357.493 393.264C356.498 393.264 355.763 393.741 355.445 394.557H355.345V393.364H354.212V401ZM369.581 401.159C371.132 401.159 372.266 400.384 372.624 399.23L371.49 398.912C371.192 399.707 370.501 400.105 369.581 400.105C368.204 400.105 367.255 399.215 367.2 397.58H372.743V397.082C372.743 394.239 371.053 393.264 369.462 393.264C367.394 393.264 366.022 394.895 366.022 397.241C366.022 399.588 367.374 401.159 369.581 401.159ZM367.2 396.565C367.279 395.377 368.12 394.318 369.462 394.318C370.735 394.318 371.55 395.273 371.55 396.565H367.2Z" fill="#29375F" fill-opacity="0.7"/>
<g clip-path="url(#clip3_7745_1548)">
<path d="M304.575 388.5L310.709 388.516L305.778 394.151L310.574 393.508L301.34 404.5L305.279 396.708L301.07 397.351L304.575 388.5Z" fill="#29375F" fill-opacity="0.7"/>
</g>
<defs>
<clipPath id="clip0_7745_1548">
<rect width="18" height="18" fill="white" transform="translate(363 27)"/>
</clipPath>
<clipPath id="clip1_7745_1548">
<rect width="14.6667" height="16" fill="white" transform="translate(299 216.5)"/>
</clipPath>
<clipPath id="clip2_7745_1548">
<rect width="16.5" height="10.1538" fill="white" transform="translate(306 262)"/>
</clipPath>
<clipPath id="clip3_7745_1548">
<rect width="14.6667" height="16" fill="white" transform="translate(299 388.5)"/>
</clipPath>
</defs>
</svg>
